<svg width="13" height="15" viewBox="0 0 13 15" fill="none" xmlns="http://www.w3.org/2000/svg">
<path d="M3.24976 15C2.7519 15.0009 2.27257 14.802 1.91 14.4442C1.54743 14.0863 1.32908 13.5965 1.29971 13.0751V12.9545V4.0911H0.650341C0.47786 4.0911 0.312443 4.01922 0.190481 3.89129C0.0685179 3.76335 0 3.58984 0 3.40891C0 3.22798 0.0685179 3.05446 0.190481 2.92653C0.312443 2.79859 0.47786 2.72672 0.650341 2.72672H3.24976V2.04555C3.2489 1.52315 3.43862 1.0202 3.78001 0.639846C4.12139 0.259493 4.58857 0.0305629 5.08573 3.10725e-06H5.20078H7.8002C8.29805 -0.000906591 8.77738 0.197962 9.13995 0.555849C9.50252 0.913736 9.72087 1.40354 9.75024 1.92486V2.04555V2.72774H12.3506C12.5231 2.72774 12.6885 2.79961 12.8105 2.92755C12.9325 3.05549 13.001 3.229 13.001 3.40993C13.001 3.59086 12.9325 3.76438 12.8105 3.89231C12.6885 4.02025 12.5231 4.09212 12.3506 4.09212H11.7003V12.9555C11.7011 13.4779 11.5114 13.9808 11.17 14.3612C10.8287 14.7415 10.3615 14.9705 9.86432 15.001H9.74927L3.24976 15ZM2.59942 12.9545C2.5993 13.1216 2.65775 13.2829 2.76364 13.4077C2.86953 13.5326 3.01547 13.6122 3.1737 13.6315H3.24878H9.75024C9.90954 13.6316 10.0633 13.5703 10.1823 13.4593C10.3014 13.3482 10.3773 13.1951 10.3957 13.0291V12.9493V4.0911H2.59552L2.59942 12.9545ZM8.44956 2.72672V2.04555C8.44967 1.87845 8.39122 1.71713 8.28534 1.59229C8.17945 1.46745 8.0335 1.38779 7.87527 1.36847L7.8002 1.36336H5.19981C5.04057 1.36347 4.8869 1.42485 4.76793 1.53589C4.64896 1.64692 4.57296 1.79988 4.55434 1.96577V2.04453V2.72672H8.44956ZM7.14985 10.9089V6.81781C7.15636 6.64159 7.22768 6.47486 7.34884 6.35259C7.47 6.23033 7.63159 6.16203 7.79971 6.16203C7.96783 6.16203 8.12942 6.23033 8.25058 6.35259C8.37174 6.47486 8.44305 6.64159 8.44956 6.81781V10.9089C8.45295 11.0006 8.43865 11.0922 8.40752 11.178C8.37639 11.2638 8.32906 11.3421 8.26838 11.4083C8.20771 11.4744 8.13492 11.5271 8.05439 11.563C7.97385 11.599 7.88723 11.6175 7.79971 11.6175C7.71218 11.6175 7.62556 11.599 7.54503 11.563C7.46449 11.5271 7.39171 11.4744 7.33103 11.4083C7.27035 11.3421 7.22303 11.2638 7.1919 11.178C7.16077 11.0922 7.14647 11.0006 7.14985 10.9089ZM4.55044 10.9089V6.81781C4.54712 6.72607 4.56148 6.63457 4.59268 6.54879C4.62387 6.46301 4.67125 6.38471 4.73197 6.3186C4.7927 6.25248 4.86552 6.1999 4.94608 6.16401C5.02664 6.12812 5.11328 6.10966 5.2008 6.10973C5.28832 6.1098 5.37493 6.1284 5.45544 6.16441C5.53595 6.20043 5.60869 6.25312 5.66933 6.31933C5.72996 6.38555 5.77722 6.46391 5.80829 6.54974C5.83936 6.63557 5.8536 6.7271 5.85015 6.81884V10.9099C5.85353 11.0017 5.83923 11.0932 5.8081 11.179C5.77697 11.2648 5.72965 11.3431 5.66897 11.4093C5.60829 11.4755 5.53551 11.5281 5.45497 11.564C5.37444 11.6 5.28782 11.6185 5.20029 11.6185C5.11277 11.6185 5.02615 11.6 4.94561 11.564C4.86508 11.5281 4.79229 11.4755 4.73162 11.4093C4.67094 11.3431 4.62361 11.2648 4.59248 11.179C4.56135 11.0932 4.54705 11.0006 4.55044 10.9089Z" fill="black"/>
</svg>
