<svg width="12" height="12" viewBox="0 0 12 12" fill="none" xmlns="http://www.w3.org/2000/svg">
<path d="M2.99977 12C2.54022 12.0007 2.09775 11.8416 1.76307 11.5553C1.42839 11.269 1.22684 10.8772 1.19973 10.4601V10.3636V3.27288H0.600315C0.441102 3.27288 0.288409 3.21538 0.175828 3.11303C0.0632473 3.01068 0 2.87187 0 2.72713C0 2.58238 0.0632473 2.44357 0.175828 2.34122C0.288409 2.23887 0.441102 2.18137 0.600315 2.18137H2.99977V1.63644C2.99899 1.21852 3.17411 0.816159 3.48924 0.511877C3.80436 0.207595 4.2356 0.0244504 4.69452 2.4858e-06H4.80072H7.20018C7.65974 -0.000725273 8.1022 0.158369 8.43688 0.444679C8.77156 0.730989 8.97311 1.12283 9.00022 1.53989V1.63644V2.18219H11.4006C11.5598 2.18219 11.7125 2.23969 11.8251 2.34204C11.9377 2.44439 12.0009 2.5832 12.0009 2.72794C12.0009 2.87269 11.9377 3.0115 11.8251 3.11385C11.7125 3.2162 11.5598 3.2737 11.4006 3.2737H10.8003V10.3644C10.8011 10.7823 10.6259 11.1847 10.3108 11.4889C9.99569 11.7932 9.56445 11.9764 9.10553 12.0008H8.99932L2.99977 12ZM2.39946 10.3636C2.39936 10.4972 2.45331 10.6263 2.55105 10.7262C2.6488 10.826 2.78351 10.8898 2.92957 10.9052H2.99887H9.00022C9.14727 10.9053 9.28923 10.8563 9.39908 10.7674C9.50894 10.6786 9.57904 10.5561 9.59604 10.4233V10.3595V3.27288H2.39586L2.39946 10.3636ZM7.79959 2.18137V1.63644C7.7997 1.50276 7.74575 1.37371 7.648 1.27383C7.55026 1.17396 7.41554 1.11024 7.26948 1.09478L7.20018 1.09069H4.79982C4.65283 1.09077 4.51098 1.13988 4.40116 1.22871C4.29135 1.31754 4.22119 1.43991 4.204 1.57262V1.63562V2.18137H7.79959ZM6.59986 8.72713V5.45425C6.60587 5.31327 6.6717 5.17989 6.78354 5.08207C6.89538 4.98426 7.04454 4.92963 7.19973 4.92963C7.35492 4.92963 7.50408 4.98426 7.61592 5.08207C7.72776 5.17989 7.79359 5.31327 7.79959 5.45425V8.72713C7.80272 8.80052 7.78952 8.87373 7.76079 8.94238C7.73205 9.01102 7.68837 9.07368 7.63235 9.12662C7.57634 9.17955 7.50916 9.22165 7.43482 9.25042C7.36048 9.27918 7.28052 9.29401 7.19973 9.29401C7.11894 9.29401 7.03898 9.27918 6.96464 9.25042C6.8903 9.22165 6.82311 9.17955 6.7671 9.12662C6.71109 9.07368 6.66741 9.01102 6.63867 8.94238C6.60994 8.87373 6.59674 8.80052 6.59986 8.72713ZM4.2004 8.72713V5.45425C4.19734 5.38086 4.2106 5.30765 4.23939 5.23903C4.26819 5.1704 4.31192 5.10777 4.36798 5.05488C4.42403 5.00199 4.49125 4.95992 4.56561 4.93121C4.63998 4.9025 4.71995 4.88773 4.80074 4.88778C4.88153 4.88784 4.96147 4.90272 5.03579 4.93153C5.1101 4.96035 5.17726 5.0025 5.23322 5.05547C5.28919 5.10844 5.33282 5.17113 5.3615 5.23979C5.39018 5.30846 5.40332 5.38168 5.40013 5.45507V8.72794C5.40326 8.80134 5.39006 8.87455 5.36133 8.94319C5.33259 9.01184 5.28891 9.0745 5.23289 9.12743C5.17688 9.18036 5.1097 9.22247 5.03536 9.25124C4.96102 9.28 4.88106 9.29482 4.80027 9.29482C4.71948 9.29482 4.63952 9.28 4.56518 9.25124C4.49084 9.22247 4.42366 9.18036 4.36764 9.12743C4.31163 9.0745 4.26795 9.01184 4.23921 8.94319C4.21048 8.87455 4.19728 8.80052 4.2004 8.72713Z" fill="black"/>
</svg>
