<svg width="16" height="16" viewBox="0 0 16 16" fill="none" xmlns="http://www.w3.org/2000/svg">
<path d="M2.66699 15.333C2.13656 15.333 1.62785 15.1223 1.25278 14.7472C0.877706 14.3721 0.666992 13.8634 0.666992 13.333V3.99999C0.666992 3.46956 0.877706 2.96085 1.25278 2.58578C1.62785 2.21071 2.13656 1.99999 2.66699 1.99999H7.33399C7.42369 1.99652 7.51317 2.01118 7.59706 2.04311C7.68096 2.07504 7.75754 2.12358 7.82223 2.18581C7.88693 2.24804 7.93839 2.32269 7.97354 2.40529C8.00869 2.48789 8.02681 2.57673 8.02681 2.66649C8.02681 2.75626 8.00869 2.8451 7.97354 2.9277C7.93839 3.01029 7.88693 3.08494 7.82223 3.14718C7.75754 3.20941 7.68096 3.25794 7.59706 3.28987C7.51317 3.3218 7.42369 3.33647 7.33399 3.33299H2.66699C2.49009 3.33299 2.32044 3.40327 2.19535 3.52835C2.07027 3.65344 1.99999 3.82309 1.99999 3.99999V13.334C2.00026 13.5107 2.07065 13.6801 2.19571 13.805C2.32076 13.9299 2.49027 14 2.66699 14H12.001C12.0885 14 12.1751 13.9828 12.2559 13.9493C12.3367 13.9158 12.4101 13.8668 12.4719 13.8049C12.5338 13.7431 12.5828 13.6697 12.6163 13.5889C12.6498 13.5081 12.667 13.4215 12.667 13.334V8.66699C12.6635 8.57729 12.6782 8.48782 12.7101 8.40392C12.742 8.32003 12.7906 8.24344 12.8528 8.17875C12.915 8.11406 12.9897 8.0626 13.0723 8.02744C13.1549 7.99229 13.2437 7.97417 13.3335 7.97417C13.4233 7.97417 13.5121 7.99229 13.5947 8.02744C13.6773 8.0626 13.7519 8.11406 13.8142 8.17875C13.8764 8.24344 13.9249 8.32003 13.9569 8.40392C13.9888 8.48782 14.0035 8.57729 14 8.66699V13.334C14 13.8644 13.7893 14.3731 13.4142 14.7482C13.0391 15.1233 12.5304 15.334 12 15.334L2.66699 15.333ZM4.80799 11.076C4.74533 10.9965 4.70181 10.9036 4.68083 10.8046C4.65984 10.7056 4.66195 10.6031 4.68699 10.505L5.35399 7.83899C5.38359 7.72166 5.44441 7.61454 5.52999 7.52899L11.867 1.19599C12.2409 0.823278 12.7425 0.606622 13.2702 0.589911C13.7979 0.5732 14.3122 0.757684 14.709 1.10599L14.809 1.19599L14.899 1.29599C15.2478 1.6933 15.4325 2.20833 15.4158 2.73676C15.3991 3.26519 15.1822 3.76752 14.809 4.14199L8.46699 10.472C8.38136 10.5573 8.27423 10.6177 8.15699 10.647L5.49099 11.314C5.43703 11.3274 5.38161 11.3341 5.32599 11.334C5.22572 11.3332 5.12696 11.3095 5.03721 11.2648C4.94745 11.2201 4.86906 11.1555 4.80799 11.076ZM12.808 2.13799L6.60799 8.33799L6.24999 9.74999L7.65999 9.39799L13.86 3.19799C13.934 3.12965 13.9934 3.04707 14.0347 2.95519C14.076 2.86332 14.0983 2.76406 14.1003 2.66335C14.1023 2.56265 14.084 2.46258 14.0463 2.36914C14.0087 2.27571 13.9526 2.19083 13.8814 2.11961C13.8102 2.04838 13.7253 1.99228 13.6318 1.95466C13.5384 1.91704 13.4383 1.89867 13.3376 1.90067C13.2369 1.90267 13.1377 1.92498 13.0458 1.96628C12.9539 2.00758 12.8713 2.067 12.803 2.14099L12.808 2.13799Z" fill="black"/>
</svg>
