<svg width="9" height="5" viewBox="0 0 9 5" fill="none" xmlns="http://www.w3.org/2000/svg">
<g id="Frame" clip-path="url(#clip0_4_3001)">
<path id="Vector" d="M1.0974 0.187513C0.973859 0.0904749 0.817759 0.0413061 0.659161 0.0494754C0.500563 0.0576447 0.350681 0.122574 0.238378 0.231761C0.126075 0.340947 0.0592917 0.48667 0.0508892 0.640867C0.0424867 0.795064 0.0930589 0.946831 0.192867 1.06694L4.05015 4.81718C4.17076 4.93437 4.3343 5.00021 4.50482 5.00021C4.67535 5.00021 4.83889 4.93437 4.9595 4.81718L8.81678 1.06694C8.88391 1.01069 8.93837 0.941564 8.97672 0.86389C9.01508 0.786215 9.03651 0.701672 9.03968 0.615564C9.04284 0.529456 9.02767 0.443641 8.99511 0.363503C8.96256 0.283364 8.91332 0.210632 8.85049 0.149868C8.78766 0.0891035 8.71259 0.0416188 8.62999 0.0103925C8.54739 -0.0208338 8.45905 -0.035128 8.3705 -0.0315933C8.28195 -0.0280586 8.19511 -0.00677131 8.11542 0.0309332C8.03574 0.0686376 7.96492 0.121946 7.90743 0.187513L4.50048 3.49147L1.0974 0.187513Z" fill="black"/>
</g>
<defs>
<clipPath id="clip0_4_3001">
<rect width="9" height="5" fill="white"/>
</clipPath>
</defs>
</svg>
