<svg width="27" height="27" viewBox="0 0 27 27" fill="none" xmlns="http://www.w3.org/2000/svg">
<g id="Frame" clip-path="url(#clip0_4_2997)">
<path id="Vector" d="M24.6945 26.6041L19.7333 21.6429C17.3049 23.5835 14.2256 24.5206 11.1278 24.2617C8.03005 24.0027 5.14902 22.5674 3.07647 20.2506C1.00392 17.9338 -0.102816 14.9113 -0.0164147 11.8039C0.0699867 8.69653 1.34296 5.7402 3.54105 3.54211C5.73914 1.34402 8.69548 0.0710396 11.8028 -0.0153619C14.9102 -0.101763 17.9327 1.00497 20.2496 3.07752C22.5664 5.15007 24.0017 8.0311 24.2606 11.1289C24.5196 14.2266 23.5825 17.306 21.6419 19.7344L26.6031 24.6956C26.8462 24.9508 26.9799 25.291 26.9756 25.6435C26.9713 25.996 26.8293 26.3329 26.5801 26.5821C26.3308 26.8314 25.994 26.9733 25.6415 26.9776C25.289 26.9819 24.9488 26.8482 24.6935 26.6051L24.6945 26.6041ZM2.69925 12.1498C2.69801 14.0066 3.24402 15.8225 4.26907 17.3707C5.29411 18.9189 6.7527 20.1306 8.46255 20.8544C10.1724 21.5782 12.0577 21.782 13.8827 21.4404C15.7078 21.0988 17.3916 20.2268 18.7239 18.9335C18.7856 18.8566 18.8555 18.7867 18.9325 18.7249C20.0096 17.6137 20.7972 16.2548 21.2261 14.7678C21.6551 13.2808 21.7122 11.7113 21.3925 10.197C21.0728 8.68281 20.386 7.2703 19.3925 6.08365C18.399 4.89701 17.1293 3.97256 15.6949 3.39157C14.2605 2.81057 12.7053 2.59082 11.1661 2.75161C9.62683 2.91241 8.15066 3.44884 6.86729 4.31375C5.58393 5.17867 4.53266 6.34558 3.80589 7.71193C3.07913 9.07828 2.69911 10.6022 2.69925 12.1498Z" fill="black"/>
</g>
<defs>
<clipPath id="clip0_4_2997">
<rect width="27" height="27" fill="white"/>
</clipPath>
</defs>
</svg>
