<svg width="14" height="14" viewBox="0 0 14 14" fill="none" xmlns="http://www.w3.org/2000/svg">
<path d="M1.00504 13.668C0.832906 13.6673 0.667316 13.602 0.541037 13.485C0.474627 13.423 0.421841 13.3479 0.386032 13.2644C0.350224 13.1809 0.332176 13.0909 0.333037 13V2.33301C0.333037 1.80257 0.543751 1.29387 0.918824 0.918794C1.2939 0.543722 1.8026 0.333008 2.33304 0.333008L11.667 0.333008C12.1975 0.333008 12.7062 0.543722 13.0813 0.918794C13.4563 1.29387 13.667 1.80257 13.667 2.33301V8.99901C13.667 9.52944 13.4563 10.0381 13.0813 10.4132C12.7062 10.7883 12.1975 10.999 11.667 10.999H3.94304L1.47104 13.471C1.41024 13.533 1.33775 13.5823 1.25776 13.6162C1.17777 13.65 1.09188 13.6676 1.00504 13.668ZM2.33304 1.66601C2.15614 1.66601 1.98648 1.73628 1.8614 1.86137C1.73631 1.98645 1.66604 2.15611 1.66604 2.33301V11.391L3.19504 9.86201C3.32052 9.73734 3.49015 9.66725 3.66704 9.66701H11.667C11.8439 9.66648 12.0133 9.59587 12.1381 9.47065C12.2629 9.34543 12.333 9.17583 12.333 8.99901V2.33301C12.333 2.15611 12.2628 1.98645 12.1377 1.86137C12.0126 1.73628 11.8429 1.66601 11.666 1.66601H2.33304Z" fill="#7F7F7F"/>
</svg>
