<svg width="16" height="14" viewBox="0 0 16 14" fill="none" xmlns="http://www.w3.org/2000/svg">
<path d="M7.9999 13.8201C7.91205 13.8197 7.82516 13.8018 7.74429 13.7674C7.66343 13.7331 7.59021 13.683 7.5289 13.6201L1.6349 7.7321C0.822008 6.91908 0.365385 5.81644 0.365479 4.66675C0.365572 3.51705 0.822376 2.41449 1.6354 1.6016C2.44842 0.788711 3.55106 0.332088 4.70075 0.332182C5.85044 0.332276 6.95301 0.789079 7.7659 1.6021L8.0009 1.8371L8.2359 1.6021C8.84191 0.995535 9.61422 0.582352 10.4551 0.414828C11.296 0.247304 12.1677 0.332968 12.9599 0.660981C13.7521 0.988994 14.4292 1.54462 14.9055 2.25755C15.3819 2.97048 15.6361 3.80868 15.6359 4.6661C15.6379 5.2358 15.5266 5.80022 15.3086 6.32655C15.0906 6.85289 14.7701 7.33066 14.3659 7.7321L8.4709 13.6241C8.40925 13.6863 8.33588 13.7356 8.25504 13.7693C8.17419 13.8029 8.08747 13.8202 7.9999 13.8201ZM4.6999 1.6661C4.10615 1.66563 3.52562 1.84136 3.0318 2.17104C2.53799 2.50071 2.15311 2.9695 1.92589 3.51806C1.69868 4.06661 1.63935 4.67025 1.75541 5.25254C1.87148 5.83483 2.15772 6.36959 2.5779 6.7891L7.9999 12.2111L13.4219 6.7891C13.9847 6.22631 14.3009 5.463 14.3009 4.6671C14.3009 3.8712 13.9847 3.10789 13.4219 2.5451C12.8591 1.98231 12.0958 1.66614 11.2999 1.66614C10.504 1.66614 9.74069 1.98231 9.1779 2.5451L8.4709 3.2511C8.40903 3.31311 8.33554 3.36231 8.25463 3.39588C8.17373 3.42945 8.08699 3.44673 7.9994 3.44673C7.9118 3.44673 7.82507 3.42945 7.74416 3.39588C7.66325 3.36231 7.58976 3.31311 7.5279 3.2511L6.8209 2.5451C6.54301 2.26566 6.21248 2.04409 5.84841 1.89321C5.48435 1.74234 5.09399 1.66514 4.6999 1.6661Z" fill="#7F7F7F"/>
</svg>
