<svg width="13" height="13" viewBox="0 0 13 13" fill="none" xmlns="http://www.w3.org/2000/svg">
<g id="Frame" clip-path="url(#clip0_4_3013)">
<path id="Vector" d="M5.92522 12.7621C5.77292 12.6098 5.68736 12.4032 5.68736 12.1878C5.68736 11.9724 5.77292 11.7658 5.92522 11.6135L10.2261 7.31266H0.812195C0.596658 7.31266 0.389949 7.22704 0.237541 7.07463C0.0851334 6.92222 -0.000488281 6.71551 -0.000488281 6.49998C-0.000488281 6.28444 0.0851334 6.07773 0.237541 5.92532C0.389949 5.77291 0.596658 5.68729 0.812195 5.68729H10.2261L5.92522 1.38743C5.7797 1.2336 5.69992 1.02907 5.70286 0.81733C5.7058 0.605591 5.79122 0.40335 5.94096 0.253614C6.09069 0.103878 6.29293 0.0184584 6.50467 0.0155203C6.71641 0.0125822 6.92094 0.0923571 7.07478 0.237881L12.7582 5.92227C12.8348 5.99783 12.8956 6.08785 12.9371 6.18711C12.9786 6.28636 13 6.39288 13 6.50046C13 6.60805 12.9786 6.71456 12.9371 6.81382C12.8956 6.91307 12.8348 7.0031 12.7582 7.07865L7.07478 12.7621C6.9223 12.9144 6.71556 13 6.5 13C6.28444 13 6.0777 12.9144 5.92522 12.7621Z" fill="#FF642F"/>
</g>
<defs>
<clipPath id="clip0_4_3013">
<rect width="13" height="13" fill="white"/>
</clipPath>
</defs>
</svg>
