<svg width="24" height="24" viewBox="0 0 24 24" fill="none" xmlns="http://www.w3.org/2000/svg">
<g clip-path="url(#clip0_5_4747)">
<path d="M1.03294 19C0.893633 19.0009 0.755233 18.9776 0.623938 18.931C0.498288 18.8865 0.383451 18.816 0.286938 18.724C0.196953 18.6258 0.123954 18.5132 0.0709382 18.391C0.0210162 18.2637 -0.00344549 18.1278 -0.00106185 17.991C-0.0013328 17.8573 0.0234266 17.7246 0.0719381 17.6C0.119586 17.4785 0.19332 17.3689 0.287938 17.279C0.384451 17.1871 0.499288 17.1165 0.624938 17.072C0.755735 17.0245 0.893792 17.0002 1.03294 17H22.9669C23.1062 16.9992 23.2446 17.0226 23.3759 17.069C23.5014 17.1133 23.6159 17.1839 23.7119 17.276C23.8067 17.366 23.8808 17.4755 23.9289 17.597C23.9771 17.7217 24.0015 17.8543 24.0009 17.988C24.0033 18.1248 23.9789 18.2607 23.9289 18.388C23.8755 18.5102 23.8022 18.6228 23.7119 18.721C23.6159 18.8131 23.5014 18.8837 23.3759 18.928C23.2446 18.9744 23.1062 18.9978 22.9669 18.997L1.03294 19ZM1.03294 13C0.893633 13.0009 0.755233 12.9776 0.623938 12.931C0.498116 12.8868 0.383207 12.8163 0.286938 12.724C0.196789 12.6259 0.123771 12.5133 0.0709382 12.391C0.0210994 12.263 -0.00302668 12.1264 -6.18458e-05 11.989C-0.000496302 11.856 0.0239225 11.7241 0.0719381 11.6C0.119688 11.4782 0.193398 11.3684 0.287938 11.278C0.384451 11.1861 0.499288 11.1155 0.624938 11.071C0.755796 11.0239 0.893851 10.9998 1.03294 11H22.9669C23.1062 10.9989 23.2446 11.0219 23.3759 11.068C23.5014 11.1123 23.6159 11.1829 23.7119 11.275C23.8068 11.3653 23.8809 11.4752 23.9289 11.597C23.977 11.7221 24.0011 11.855 23.9999 11.989C24.0023 12.1258 23.9779 12.2617 23.9279 12.389C23.8747 12.5114 23.8014 12.6239 23.7109 12.722C23.6152 12.8144 23.5006 12.885 23.3749 12.929C23.2441 12.976 23.106 13 22.9669 13H1.03294ZM1.03294 7C0.893692 7.00124 0.755293 6.97823 0.623938 6.932C0.498288 6.88749 0.383451 6.81695 0.286938 6.725C0.196755 6.62654 0.12374 6.51364 0.0709382 6.391C0.0207906 6.2627 -0.00334409 6.12571 -6.18458e-05 5.988C-0.000371861 5.85532 0.0240449 5.72374 0.0719381 5.6C0.119198 5.47741 0.192956 5.36678 0.287938 5.276C0.384207 5.18374 0.499116 5.11315 0.624938 5.069C0.755917 5.02255 0.893969 4.9992 1.03294 5H22.9669C23.1062 4.99921 23.2446 5.02255 23.3759 5.069C23.5016 5.11297 23.6162 5.18358 23.7119 5.276C23.8067 5.36694 23.8804 5.47753 23.9279 5.6C23.9758 5.72374 24.0002 5.85532 23.9999 5.988C24.0025 6.12477 23.978 6.26071 23.9279 6.388C23.8747 6.51064 23.8014 6.62353 23.7109 6.722C23.6149 6.81412 23.5004 6.88469 23.3749 6.929C23.2441 6.97602 23.106 7.00004 22.9669 7H1.03294Z" fill="black"/>
</g>
<defs>
<clipPath id="clip0_5_4747">
<rect width="24" height="24" fill="white"/>
</clipPath>
</defs>
</svg>
