<svg width="11" height="20" viewBox="0 0 11 20" fill="none" xmlns="http://www.w3.org/2000/svg">
<path d="M6.667 19.166H3.333C3.11216 19.1657 2.90043 19.0779 2.74427 18.9217C2.58811 18.7656 2.50026 18.5539 2.5 18.333V12.5H0.833C0.612064 12.4995 0.400343 12.4114 0.244211 12.2551C0.0880792 12.0988 0.000263961 11.8869 0 11.666L0 8.33301C0.000264643 8.11216 0.0881119 7.90044 0.244272 7.74428C0.400433 7.58812 0.612156 7.50027 0.833 7.50001H2.5V5.83301C2.50159 4.50741 3.02888 3.23657 3.96622 2.29923C4.90356 1.36189 6.17441 0.834596 7.5 0.833008L10 0.833008C10.2208 0.833272 10.4326 0.92112 10.5887 1.07728C10.7449 1.23344 10.8327 1.44516 10.833 1.66601V5.00001C10.8327 5.22085 10.7449 5.43258 10.5887 5.58874C10.4326 5.7449 10.2208 5.83274 10 5.83301H7.5V7.50001H10C10.1264 7.5001 10.251 7.52895 10.3646 7.58435C10.4782 7.63975 10.5776 7.72027 10.6555 7.81979C10.7333 7.91932 10.7875 8.03526 10.814 8.15882C10.8404 8.28239 10.8383 8.41035 10.808 8.53301L9.975 11.867C9.93023 12.0476 9.82618 12.2079 9.67951 12.3223C9.53283 12.4367 9.35201 12.4986 9.166 12.498H7.5V18.333C7.49974 18.5539 7.41189 18.7656 7.25573 18.9217C7.09957 19.0779 6.88784 19.1657 6.667 19.166ZM1.667 9.16601V10.833H3.333C3.55394 10.8333 3.76576 10.9211 3.92208 11.0772C4.0784 11.2334 4.16647 11.4451 4.167 11.666V17.5H5.833V11.666C5.83327 11.445 5.92125 11.2331 6.07763 11.0769C6.234 10.9207 6.44598 10.833 6.667 10.833H8.517L8.933 9.16601H6.667C6.44598 9.16601 6.234 9.07828 6.07763 8.92209C5.92125 8.7659 5.83327 8.55403 5.833 8.33301V5.83301C5.83353 5.39105 6.00933 4.96735 6.32184 4.65485C6.63435 4.34234 7.05805 4.16654 7.5 4.16601H9.166V2.49901H7.5C6.61619 2.50007 5.76889 2.8517 5.14403 3.47674C4.51917 4.10179 4.16779 4.94919 4.167 5.83301V8.33301C4.16647 8.55394 4.0784 8.76567 3.92208 8.9218C3.76576 9.07793 3.55394 9.16574 3.333 9.16601H1.667Z" fill="black"/>
</svg>
