<svg width="20" height="20" viewBox="0 0 20 20" fill="none" xmlns="http://www.w3.org/2000/svg">
<path d="M5.83301 19.166C4.50733 19.1647 3.23633 18.6375 2.29894 17.7001C1.36154 16.7627 0.834332 15.4917 0.833008 14.166L0.833008 5.83301C0.834596 4.50741 1.36189 3.23657 2.29923 2.29923C3.23657 1.36189 4.50741 0.834596 5.83301 0.833008L14.166 0.833008C15.4917 0.834332 16.7627 1.36154 17.7001 2.29894C18.6375 3.23633 19.1647 4.50733 19.166 5.83301V14.166C19.166 15.4921 18.6392 16.7639 17.7015 17.7015C16.7639 18.6392 15.4921 19.166 14.166 19.166H5.83301ZM2.50001 5.83301V14.166C2.5008 15.0498 2.85218 15.8972 3.47704 16.5223C4.1019 17.1473 4.94919 17.4989 5.83301 17.5H14.166C15.0496 17.4989 15.8968 17.1475 16.5216 16.5226C17.1465 15.8978 17.4979 15.0506 17.499 14.167V5.83301C17.4982 4.94919 17.1468 4.10179 16.522 3.47674C15.8971 2.8517 15.0498 2.50007 14.166 2.49901H5.83301C4.94927 2.50033 4.10213 2.85205 3.47733 3.47704C2.85253 4.10202 2.50107 4.94927 2.50001 5.83301ZM7.09001 12.909C6.40984 12.2268 5.98725 11.3299 5.89424 10.371C5.80124 9.41218 6.04357 8.45075 6.57995 7.65054C7.11633 6.85034 7.91357 6.26086 8.83584 5.98256C9.75811 5.70426 10.7483 5.75434 11.6378 6.12428C12.5273 6.49421 13.261 7.16112 13.7139 8.01136C14.1668 8.8616 14.3109 9.84258 14.1216 10.7871C13.9324 11.7317 13.4214 12.5814 12.6759 13.1915C11.9304 13.8016 10.9964 14.1343 10.033 14.133C9.48592 14.1325 8.94429 14.0242 8.43912 13.8142C7.93396 13.6041 7.47616 13.2966 7.09001 12.909ZM7.80301 8.83901C7.56522 9.31098 7.48311 9.84616 7.56848 10.3677C7.65385 10.8893 7.90231 11.3703 8.27817 11.7419C8.65403 12.1134 9.13796 12.3562 9.66046 12.4356C10.183 12.5149 10.7172 12.4266 11.1863 12.1833C11.6555 11.9401 12.0355 11.5544 12.2718 11.0817C12.5081 10.6089 12.5885 10.0735 12.5015 9.55222C12.4145 9.03094 12.1645 8.55065 11.7875 8.18032C11.4105 7.80999 10.9258 7.56867 10.403 7.49101C10.2805 7.47295 10.1568 7.46393 10.033 7.46401C9.57018 7.46299 9.11624 7.59115 8.72228 7.83407C8.32831 8.07698 8.00995 8.42501 7.80301 8.83901ZM13.994 6.00601C13.8577 5.86973 13.7729 5.69042 13.7541 5.49863C13.7352 5.30683 13.7834 5.11443 13.8905 4.95419C13.9975 4.79396 14.1568 4.6758 14.3413 4.61987C14.5257 4.56393 14.7238 4.57367 14.9019 4.64743C15.0799 4.72119 15.2269 4.8544 15.3177 5.02437C15.4085 5.19433 15.4376 5.39054 15.4 5.57955C15.3624 5.76857 15.2604 5.9387 15.1115 6.06095C14.9625 6.1832 14.7757 6.25002 14.583 6.25001C14.3621 6.24989 14.1503 6.16214 13.994 6.00601Z" fill="black"/>
</svg>
