<svg width="161" height="50" viewBox="0 0 161 50" fill="none" xmlns="http://www.w3.org/2000/svg">
<g id="IMAGE" clip-path="url(#clip0_4_2989)">
<g id="Group 2">
<path id="Logo" d="M129.534 49.922C128.969 49.9217 128.416 49.7656 127.934 49.471C126.797 48.8464 125.885 47.8811 125.326 46.711C124.812 45.4769 124.7 44.1125 125.005 42.811C125.58 39.911 126.158 37.327 126.773 34.917C126.454 35.2802 126.112 35.6235 125.751 35.945C125.026 36.5994 124.082 36.9592 123.105 36.954C122.146 36.9459 121.216 36.6304 120.45 36.054C119.229 35.2518 118.276 34.1025 117.713 32.754C117.59 32.3987 117.49 32.036 117.413 31.668C117.374 31.501 117.334 31.33 117.29 31.163C117.493 29.2732 117.921 27.4144 118.564 25.626L118.877 24.647L118.888 24.613C119.496 22.713 120.124 20.739 120.804 18.824C121.13 17.906 121.537 16.999 121.929 16.124C122.104 15.734 122.283 15.333 122.454 14.936C122.554 14.714 122.648 14.49 122.744 14.273C122.936 13.838 123.133 13.39 123.31 12.942C123.55 12.335 123.788 11.984 124.295 11.984C124.484 11.9911 124.672 12.0248 124.852 12.084C125.667 12.2984 126.447 12.6273 127.169 13.061C127.709 13.3738 128.107 13.8829 128.28 14.482C128.408 15.1011 128.338 15.7447 128.08 16.322C127.639 17.452 127.173 18.593 126.723 19.698C125.969 21.546 125.191 23.454 124.505 25.361C123.942 26.925 123.488 28.561 123.05 30.142C122.858 30.834 122.66 31.549 122.456 32.248L122.444 32.286C122.416 32.3536 122.404 32.427 122.41 32.5C122.464 32.769 122.529 33.041 122.591 33.3L122.649 33.546C122.74 33.506 122.839 33.474 122.935 33.446C123.141 33.3955 123.333 33.2995 123.497 33.165C123.814 32.851 124.139 32.537 124.453 32.234C125.768 31.0546 126.949 29.7344 127.976 28.297C128.046 28.1901 128.125 28.0897 128.213 27.997C128.31 27.8685 128.454 27.7825 128.613 27.757C128.656 27.7586 128.699 27.7703 128.737 27.7911C128.775 27.812 128.807 27.8414 128.832 27.877C129.845 24.807 130.898 21.799 132.169 18.227C132.583 17.063 133.04 15.892 133.482 14.76C133.804 13.935 134.136 13.085 134.449 12.244C134.649 11.701 134.675 11.362 134.526 11.144C134.377 10.926 134.019 10.815 133.383 10.813H133.347C131.97 10.8438 130.597 10.9664 129.236 11.18C128.17 11.324 127.068 11.472 125.975 11.526C125.664 11.541 125.346 11.549 125.031 11.549C124.677 11.549 124.316 11.539 123.958 11.521C123.636 11.504 123.097 11.477 123.106 10.958C123.112 10.591 123.438 10.558 123.726 10.534C123.789 10.528 123.847 10.523 123.902 10.514L126.078 10.187L128.405 9.837C127.887 9.89675 127.362 9.80037 126.899 9.56021C126.436 9.32004 126.055 8.94705 125.805 8.489C125.668 8.18038 125.62 7.83955 125.666 7.505C125.914 5.88947 126.382 4.31552 127.057 2.827L127.066 2.805L127.238 2.373C127.32 2.13931 127.477 1.93916 127.685 1.8033C127.892 1.66744 128.138 1.60339 128.385 1.621C128.45 1.621 128.518 1.621 128.585 1.631C129.77 1.69497 130.899 2.1601 131.785 2.95C132.203 3.23081 132.499 3.65937 132.613 4.14951C132.728 4.63965 132.653 5.15502 132.403 5.592C131.803 7.05988 130.839 8.35102 129.603 9.344C129.298 9.58379 128.938 9.74454 128.556 9.812C129.762 9.632 130.546 9.517 131.264 9.412L131.807 9.331C132.625 9.18847 133.452 9.1016 134.282 9.071C134.71 9.08525 135.132 8.96156 135.485 8.71815C135.837 8.47475 136.102 8.12449 136.241 7.719C136.741 6.529 137.207 5.274 137.666 3.883C137.96 2.992 138.155 2.676 138.666 2.676C138.938 2.68906 139.207 2.73746 139.466 2.82L139.783 2.906C140.64 3.05268 141.437 3.4397 142.083 4.022C142.472 4.35641 142.759 4.79425 142.91 5.28482C143.061 5.7754 143.069 6.29865 142.935 6.794C142.813 7.26 142.816 7.546 142.947 7.724C143.078 7.902 143.34 7.984 143.823 7.997C144.023 8.003 144.246 8.005 144.512 8.005H145.054H145.596V7.805H145.713C146.032 7.805 146.355 7.805 146.668 7.805H146.683C147.039 7.805 147.407 7.805 147.769 7.805C148.453 7.805 149.007 7.814 149.513 7.835C149.926 7.83899 150.323 7.99125 150.633 8.264C150.798 8.41848 150.917 8.61551 150.978 8.8334C151.038 9.05129 151.037 9.28161 150.975 9.499C150.877 9.72501 150.719 9.91976 150.518 10.0619C150.317 10.2041 150.081 10.2882 149.835 10.305C149.225 10.394 148.597 10.424 147.989 10.452C147.767 10.462 147.538 10.473 147.314 10.487L146.481 10.537C145.35 10.606 144.181 10.677 143.028 10.724C142.604 10.7047 142.185 10.8232 141.834 11.0619C141.483 11.3006 141.219 11.6466 141.081 12.048C140.632 13.148 140.152 14.255 139.688 15.327C138.32 18.2796 137.182 21.3333 136.283 24.461C136.024 25.461 135.66 26.446 135.309 27.401C135.066 28.061 134.816 28.742 134.601 29.42C133.989 31.36 133.406 33.344 132.87 35.32C132.334 37.296 131.838 39.286 131.356 41.22L131.156 42.028C130.962 42.806 130.744 43.728 130.592 44.661C130.575 44.8837 130.605 45.1073 130.679 45.318C130.706 45.418 130.734 45.518 130.753 45.618C130.84 45.572 130.936 45.533 131.029 45.494C131.233 45.4291 131.42 45.3175 131.573 45.168C132.13 44.5235 132.636 43.8364 133.086 43.113C134.427 40.87 135.794 38.524 137.266 35.94C137.966 34.712 138.666 33.453 139.335 32.24L139.91 31.202C139.345 29.457 139.257 27.5924 139.656 25.802C140.268 22.2407 141.861 18.9206 144.256 16.215C145.224 15.2092 146.266 14.2775 147.374 13.428C147.674 13.19 147.974 12.943 148.274 12.697C148.638 12.3935 149.1 12.2319 149.574 12.242C149.909 12.2472 150.241 12.3015 150.56 12.403C150.85 12.49 151.149 12.568 151.438 12.643C151.922 12.7596 152.4 12.9011 152.87 13.067L153.034 13.128H153.042C153.746 13.3472 154.41 13.6763 155.011 14.103C155.507 14.5191 155.864 15.077 156.033 15.7018C156.203 16.3265 156.177 16.9882 155.96 17.598C155.276 20.2059 154.322 22.7356 153.114 25.146L153.052 25.278C152.59 26.3254 152.062 27.3427 151.472 28.324C150.976 29.0608 150.39 29.7327 149.728 30.324C149.436 30.612 149.043 30.7736 148.633 30.774C148.364 30.7686 148.098 30.7151 147.848 30.616C146.922 30.3062 146.083 29.7796 145.401 29.08C145.182 28.845 144.909 28.552 144.614 28.552C144.512 28.5536 144.413 28.5864 144.33 28.646C144.017 28.9175 143.819 29.2972 143.774 29.709C143.643 30.5098 143.617 31.3244 143.697 32.132C143.923 33.754 144.804 34.685 146.112 34.685C146.301 34.6841 146.49 34.6674 146.677 34.635C148.265 34.348 149.738 33.6132 150.923 32.517C152.925 30.6695 154.763 28.6523 156.417 26.488C157.391 25.276 158.43 24.088 159.435 22.935L159.892 22.412C160.006 22.3026 160.143 22.2194 160.292 22.168C160.361 22.138 160.431 22.108 160.492 22.068C160.521 22.1558 160.554 22.2419 160.592 22.326C160.687 22.4851 160.729 22.6705 160.711 22.855L160.681 22.955C160.244 24.7875 159.5 26.5329 158.481 28.117C158.043 28.723 157.607 29.347 157.181 29.95C156.405 31.06 155.602 32.207 154.758 33.293C153.968 34.2914 153.085 35.2119 152.12 36.042C151.164 36.836 149.944 37.2415 148.703 37.178C148.552 37.178 148.395 37.178 148.235 37.165C148.113 37.172 147.99 37.175 147.869 37.175C146.099 37.1122 144.402 36.4608 143.044 35.324C142.089 34.6294 141.274 33.7597 140.644 32.761C140.543 33.1476 140.422 33.5284 140.28 33.902C139.303 36.452 138.172 39.112 136.822 42.035C136.046 43.6512 135.182 45.2239 134.235 46.746C133.482 48.1463 132.224 49.2072 130.717 49.713C130.336 49.8423 129.937 49.9127 129.534 49.922ZM150.969 16.7C150.877 16.762 150.793 16.815 150.711 16.866C150.558 16.9549 150.413 17.0576 150.278 17.173C150.114 17.325 149.96 17.493 149.811 17.657C149.711 17.771 149.599 17.889 149.489 18C147.635 19.9363 146.166 22.2072 145.16 24.692C145.006 25.0864 144.955 25.5133 145.01 25.9329C145.066 26.3525 145.227 26.7513 145.478 27.092C145.637 27.38 145.805 27.514 146.009 27.514C146.189 27.5005 146.36 27.4305 146.498 27.314C147.326 26.638 147.955 25.7507 148.32 24.746C149.081 22.987 149.82 21.181 150.526 19.434L150.54 19.399C150.761 18.857 150.982 18.315 151.203 17.773C151.298 17.5857 151.344 17.377 151.336 17.167C151.294 17.0445 151.218 16.9368 151.116 16.857C151.066 16.808 151.016 16.757 150.969 16.702V16.7ZM67.039 49.922C66.4743 49.9217 65.9207 49.7656 65.439 49.471C64.3024 48.8464 63.3903 47.8811 62.831 46.711C62.3173 45.4769 62.2049 44.1125 62.51 42.811C63.4236 37.9785 64.6302 33.2061 66.123 28.52C67.188 25.261 68.312 22.048 69.67 18.228C69.763 17.968 69.86 17.7 69.97 17.408C69.815 17.52 69.67 17.617 69.539 17.708C69.267 17.889 68.985 18.061 68.713 18.226C68.0781 18.5843 67.4808 19.0054 66.93 19.483C66.369 19.9612 65.7593 20.3791 65.111 20.73C64.811 20.909 64.494 21.093 64.196 21.289L63.896 21.489C63.264 21.903 62.609 22.331 61.996 22.789C60.846 23.642 60.733 24.078 61.325 25.38C61.433 25.617 61.551 25.853 61.665 26.08C61.779 26.307 61.89 26.531 61.996 26.762C62.7019 28.2257 62.936 29.8725 62.666 31.475C62.3406 33.0432 61.6391 34.5089 60.622 35.746C60.1695 36.2552 59.6092 36.6571 58.9817 36.9223C58.3542 37.1875 57.6755 37.3093 56.995 37.279C56.887 37.279 56.784 37.286 56.673 37.286H56.391H56.109C53.9131 37.1998 51.8019 36.4159 50.082 35.048L50 35.178C49.7098 35.6709 49.2963 36.0797 48.8 36.3642C48.3038 36.6486 47.742 36.7988 47.17 36.8C46.3812 36.7826 45.6136 36.5419 44.956 36.106C43.9977 35.5431 43.192 34.7539 42.6094 33.8074C42.0267 32.861 41.685 31.7861 41.614 30.677C41.5846 30.2726 41.522 29.8712 41.427 29.477C41.382 29.295 41.213 28.989 41.105 28.984H41.091C40.9922 28.9961 40.8972 29.0291 40.8121 29.0808C40.7271 29.1326 40.6541 29.2018 40.598 29.284C40.174 29.902 39.752 30.538 39.344 31.153C38.553 32.346 37.735 33.58 36.862 34.736C36.5536 35.2404 36.1254 35.6608 35.6155 35.96C35.1056 36.2592 34.5297 36.4278 33.939 36.451C33.849 36.451 33.757 36.451 33.665 36.44C33.445 36.422 33.22 36.413 33.004 36.405C32.0911 36.4622 31.1845 36.2207 30.421 35.717C29.5204 35.0759 28.7839 34.2312 28.2714 33.2517C27.759 32.2721 27.4851 31.1854 27.472 30.08C27.3427 28.003 27.8673 25.9376 28.972 24.174C29.396 23.491 29.805 22.774 30.2 22.09C30.8622 20.8871 31.5854 19.7189 32.367 18.59C33.1046 17.6218 33.9185 16.7142 34.801 15.876C35.153 15.524 35.516 15.161 35.863 14.795C35.948 14.705 36.032 14.612 36.114 14.521C36.3801 14.1945 36.6924 13.9085 37.041 13.672C37.6876 13.297 38.4258 13.1094 39.173 13.13H39.345C41.5615 13.1821 43.6901 14.007 45.363 15.462C45.5753 15.6897 45.8513 15.8483 46.155 15.917C46.404 15.917 46.567 15.656 46.782 15.174C46.865 14.987 46.955 14.786 47.043 14.581C47.462 13.603 47.654 13.287 48.315 13.287C48.599 13.2964 48.8821 13.3258 49.162 13.375C49.6229 13.4633 50.0608 13.6451 50.4487 13.9093C50.8366 14.1735 51.1661 14.5144 51.417 14.911C51.6519 15.2405 51.8173 15.6143 51.9033 16.0096C51.9892 16.405 51.9939 16.8138 51.917 17.211C51.6653 18.1642 51.3424 19.0972 50.951 20.002C50.789 20.402 50.621 20.82 50.469 21.232C50.28 21.744 50.091 22.261 49.908 22.762C49.494 23.894 49.065 25.062 48.626 26.21C48.459 26.645 48.27 27.078 48.088 27.496C47.846 28.05 47.596 28.623 47.395 29.207C47.0578 30.194 46.7905 31.2035 46.595 32.228C46.5833 32.4895 46.6405 32.7496 46.761 32.982C46.808 33.101 46.861 33.225 46.89 33.342C46.997 33.311 47.113 33.288 47.226 33.267C47.4653 33.2449 47.6949 33.1619 47.893 33.026L47.925 33L47.96 32.969C47.8422 32.7399 47.7995 32.4796 47.8379 32.225C47.8763 31.9703 47.9939 31.7341 48.174 31.55C48.6986 30.8293 49.3125 30.1781 50.001 29.612C51.324 28.54 52.701 27.489 54.032 26.472C54.519 26.1 55.023 25.716 55.522 25.332C55.622 25.256 55.722 25.182 55.822 25.111C55.96 25.011 56.103 24.911 56.236 24.801C56.395 24.7084 56.533 24.5838 56.6414 24.4351C56.7497 24.2864 56.826 24.1169 56.8655 23.9372C56.905 23.7575 56.9068 23.5715 56.8707 23.3911C56.8346 23.2107 56.7615 23.0397 56.656 22.889C56.278 22.094 55.888 21.272 55.456 20.484C54.9058 19.5364 54.5805 18.4752 54.5051 17.3821C54.4297 16.289 54.6062 15.1932 55.021 14.179C55.641 12.8628 56.5552 11.7067 57.693 10.8C57.9128 10.5998 58.1501 10.4198 58.402 10.262C59.073 9.78091 59.8684 9.50318 60.693 9.462C60.924 9.46244 61.1543 9.48758 61.38 9.537C62.1371 9.69037 62.8798 9.90782 63.6 10.187C65.446 9.908 67.11 9.658 68.773 9.418L69.316 9.337C70.1342 9.19447 70.9611 9.1076 71.791 9.077C72.2193 9.09125 72.6408 8.96756 72.9935 8.72415C73.3462 8.48075 73.6114 8.13049 73.75 7.725C74.25 6.535 74.716 5.28 75.175 3.889C75.469 2.998 75.664 2.682 76.175 2.682C76.4468 2.69505 76.7157 2.74345 76.975 2.826L77.292 2.912C78.1489 3.05868 78.9465 3.4457 79.592 4.028C79.9808 4.36275 80.2669 4.80075 80.4171 5.2913C80.5674 5.78186 80.5756 6.30493 80.441 6.8C80.319 7.266 80.322 7.552 80.453 7.73C80.584 7.908 80.846 7.99 81.33 8.003C81.53 8.009 81.753 8.011 82.019 8.011H82.561L83.101 8V7.8H83.218C83.537 7.8 83.86 7.8 84.173 7.8H84.188C84.544 7.8 84.912 7.8 85.274 7.8C85.957 7.8 86.512 7.809 87.018 7.83C87.431 7.83402 87.8288 7.98626 88.139 8.259C88.3041 8.41348 88.4234 8.61051 88.4837 8.8284C88.544 9.04629 88.5431 9.27661 88.481 9.494C88.3831 9.72015 88.2249 9.915 88.0236 10.0572C87.8224 10.1993 87.5858 10.2834 87.34 10.3C86.73 10.389 86.102 10.419 85.494 10.447C85.272 10.457 85.043 10.468 84.819 10.482L83.986 10.532C82.853 10.601 81.686 10.672 80.533 10.719C80.109 10.6997 79.6901 10.8182 79.3391 11.0569C78.9881 11.2956 78.7239 11.6416 78.586 12.043C78.137 13.143 77.658 14.249 77.195 15.319C75.8286 18.2714 74.6919 21.3248 73.795 24.452C73.536 25.452 73.172 26.438 72.821 27.393C72.579 28.052 72.328 28.733 72.113 29.412C71.501 31.352 70.918 33.336 70.382 35.312C69.846 37.288 69.35 39.278 68.868 41.212L68.668 42.02C68.474 42.798 68.256 43.72 68.104 44.653C68.0874 44.8757 68.1171 45.0993 68.191 45.31C68.218 45.41 68.246 45.51 68.265 45.61C68.352 45.564 68.448 45.525 68.541 45.486C68.7452 45.4211 68.9315 45.3095 69.085 45.16C69.6421 44.5155 70.148 43.8284 70.598 43.105C71.939 40.862 73.306 38.516 74.778 35.932C75.478 34.702 76.178 33.443 76.849 32.226L76.873 32.182L77.422 31.191C76.8567 29.446 76.769 27.5814 77.168 25.791C77.78 22.2298 79.373 18.9098 81.768 16.204C82.736 15.1982 83.7783 14.2665 84.886 13.417C85.186 13.179 85.486 12.932 85.786 12.686C86.1503 12.3825 86.612 12.2209 87.086 12.231C87.4208 12.2362 87.753 12.2905 88.072 12.392C88.362 12.479 88.66 12.556 88.949 12.631C89.434 12.7479 89.9126 12.8898 90.383 13.056L90.556 13.121C91.2589 13.3401 91.9227 13.6688 92.523 14.095C93.0189 14.5111 93.3757 15.069 93.5453 15.6938C93.7149 16.3185 93.6894 16.9802 93.472 17.59C92.7878 20.1979 91.834 22.7276 90.626 25.138L90.56 25.279C90.099 26.3234 89.5726 27.3378 88.984 28.316C88.4883 29.0528 87.9025 29.7247 87.24 30.316C86.9482 30.604 86.5549 30.7656 86.145 30.766C85.876 30.7607 85.6101 30.7071 85.36 30.608C84.4346 30.2971 83.5967 29.7698 82.916 29.07C82.697 28.835 82.424 28.542 82.129 28.542C82.027 28.5436 81.9279 28.5764 81.845 28.636C81.5325 28.9077 81.3339 29.2873 81.289 29.699C81.1575 30.4998 81.1317 31.3144 81.212 32.122C81.438 33.744 82.319 34.675 83.627 34.675C83.8164 34.6741 84.0054 34.6574 84.192 34.625C85.7802 34.338 87.2534 33.6032 88.438 32.507C90.4397 30.6595 92.2779 28.6423 93.932 26.478C94.426 25.863 94.973 25.209 95.653 24.419C96.3676 21.8103 97.2293 19.2442 98.234 16.733C99.043 14.646 99.927 12.51 100.862 10.385C101.262 9.474 101.703 8.564 102.128 7.685C102.553 6.806 102.988 5.908 103.387 5.002C103.908 3.821 104.355 2.577 104.787 1.374L104.931 0.974001C105.189 0.258001 105.473 -0.00799942 105.978 -0.00799942C106.226 0.000608673 106.471 0.0412811 106.708 0.113001C107.712 0.43901 108.589 1.07039 109.217 1.919C109.478 2.19926 109.653 2.54798 109.723 2.92433C109.792 3.30067 109.753 3.68906 109.61 4.044L109.505 4.299C109.062 5.372 108.605 6.481 108.179 7.585C108.066 7.878 107.972 8.185 107.879 8.485C107.77 8.87852 107.636 9.26493 107.479 9.642C107.079 10.536 106.656 11.436 106.247 12.307C105.599 13.686 104.929 15.107 104.335 16.546C103.597 18.329 102.935 20.186 102.301 21.983C102.112 22.515 101.918 23.064 101.723 23.606C101.55 24.088 101.408 24.593 101.271 25.082V25.088C101.208 25.313 101.143 25.546 101.071 25.774L101.179 25.802H101.19L101.326 25.838C101.789 25.099 102.255 24.348 102.707 23.621C103.754 21.936 104.836 20.195 105.93 18.502C107.132 16.7407 108.659 15.2252 110.43 14.037C110.935 13.6819 111.539 13.4969 112.156 13.509C112.452 13.5092 112.747 13.5427 113.035 13.609C113.948 13.8161 114.836 14.1226 115.682 14.523C117.674 15.472 118.205 17.332 118.614 19.318C118.799 20.5756 118.747 21.8567 118.46 23.095C118.417 23.35 118.373 23.611 118.334 23.868C117.867 26.8204 116.823 29.6519 115.262 32.201C115.018 32.6395 114.711 33.0403 114.352 33.391L114.111 33.614C113.167 34.486 112.192 35.388 111.153 36.177C110.409 36.7405 109.497 37.0352 108.564 37.013C107.755 36.9958 106.953 36.8531 106.188 36.59C106.019 36.536 105.847 36.483 105.68 36.432C104.529 36.1728 103.457 35.6409 102.555 34.881C102.394 34.71 102.173 34.6084 101.939 34.598C101.796 34.6077 101.657 34.6474 101.53 34.7146C101.403 34.7818 101.292 34.875 101.204 34.988C100.96 35.3192 100.649 35.5959 100.292 35.8005C99.9351 36.005 99.5393 36.1329 99.13 36.176C98.8442 36.1724 98.5618 36.114 98.298 36.004C97.1355 35.5253 96.1552 34.6895 95.4986 33.6173C94.842 32.5452 94.5431 31.2921 94.645 30.039L94.601 30.1C93.901 31.1 93.101 32.238 92.277 33.3C91.4874 34.2984 90.604 35.2189 89.639 36.049C88.6829 36.843 87.4632 37.2485 86.222 37.185C86.071 37.185 85.914 37.185 85.755 37.172C85.633 37.179 85.51 37.182 85.389 37.182C83.6195 37.1192 81.9215 36.4678 80.564 35.331C79.6089 34.6364 78.7944 33.7667 78.164 32.768C78.0632 33.1546 77.9416 33.5354 77.8 33.909C76.823 36.459 75.692 39.119 74.342 42.042C73.5665 43.6585 72.7028 45.2312 71.755 46.753C71.0022 48.1533 69.7442 49.2142 68.237 49.72C67.8504 49.8484 67.4463 49.9165 67.039 49.922ZM42.735 16.2C42.4665 16.2004 42.2029 16.273 41.972 16.41C40.5424 17.3023 39.2505 18.3981 38.137 19.663C36.6359 21.3389 35.3113 23.1649 34.184 25.112C33.0445 26.8903 32.1908 28.8363 31.654 30.879C31.5671 31.2894 31.506 31.7049 31.471 32.123C31.451 32.313 31.43 32.51 31.405 32.702L31.518 32.72C31.524 32.797 31.53 32.875 31.535 32.952C31.548 33.138 31.561 33.33 31.591 33.518C31.6134 33.616 31.6512 33.7099 31.703 33.796C31.72 33.828 31.737 33.861 31.753 33.896C31.953 34.313 32.143 34.491 32.387 34.491C32.5623 34.4787 32.7315 34.4211 32.878 34.324C33.1699 34.1545 33.4301 33.9356 33.647 33.677L33.847 33.437C34.3655 32.8481 34.851 32.2308 35.301 31.588C36.084 30.42 36.861 29.223 37.614 28.065C38.273 27.052 38.954 26.004 39.635 24.98C41.359 22.386 42.794 20.273 44.151 18.328C44.3063 18.1406 44.3898 17.904 44.3865 17.6607C44.3832 17.4173 44.2933 17.1831 44.133 17C43.9837 16.762 43.778 16.5645 43.5342 16.425C43.2903 16.2854 43.0158 16.2082 42.735 16.2ZM57.889 26.593C57.6138 26.6216 57.3549 26.7372 57.15 26.923C55.41 28.264 53.841 29.478 52.244 30.748C51.6714 31.1888 51.1384 31.6786 50.651 32.212C50.5194 32.3293 50.4193 32.4777 50.3599 32.6437C50.3005 32.8096 50.2837 32.9879 50.311 33.162C50.3767 33.3184 50.4811 33.4556 50.6144 33.5606C50.7477 33.6655 50.9055 33.7348 51.073 33.762C51.5504 33.8904 52.0349 33.9906 52.524 34.062C52.734 34.097 52.951 34.133 53.163 34.173L53.184 34.035C53.251 34.035 53.319 34.035 53.384 34.035C53.449 34.035 53.518 34.035 53.584 34.035C53.6611 34.0354 53.7382 34.0318 53.815 34.024C53.976 34.007 54.141 33.995 54.3 33.984C54.9885 34.0156 55.6675 33.8129 56.226 33.409C57.0832 32.6971 57.7438 31.7775 58.1449 30.7378C58.5459 29.6982 58.674 28.5732 58.517 27.47C58.449 26.9 58.23 26.593 57.889 26.593ZM113.25 16.485C112.924 16.4981 112.611 16.6187 112.361 16.828C112.151 17.028 111.938 17.218 111.732 17.406C110.775 18.2204 109.906 19.132 109.137 20.126C107.699 22.133 106.425 24.291 105.137 26.51C104.572 27.482 104.07 28.518 103.584 29.519C103.327 30.049 103.062 30.596 102.789 31.128C102.654 31.4111 102.61 31.7293 102.664 32.0384C102.717 32.3475 102.866 32.6322 103.089 32.853C103.327 33.207 103.644 33.5002 104.016 33.7086C104.388 33.9171 104.804 34.0351 105.23 34.053C105.795 34.0436 106.34 33.8386 106.771 33.473C108.133 32.4974 109.297 31.2724 110.202 29.863C110.425 29.469 110.671 29.079 110.909 28.701C111.401 27.9693 111.827 27.1956 112.182 26.389C112.747 24.9089 113.189 23.3843 113.501 21.831C113.701 20.907 113.817 19.938 113.926 19.001C113.975 18.583 114.026 18.151 114.083 17.728C114.019 17.586 113.965 17.428 113.913 17.28C113.799 16.948 113.691 16.635 113.494 16.537C113.418 16.5014 113.334 16.4836 113.25 16.485ZM88.474 16.7C88.382 16.762 88.297 16.815 88.215 16.867C88.0619 16.9559 87.9173 17.0587 87.783 17.174C87.619 17.326 87.465 17.494 87.316 17.658C87.216 17.772 87.104 17.89 86.994 18.001C85.1401 19.9373 83.671 22.2082 82.665 24.693C82.5112 25.0874 82.4598 25.5143 82.5154 25.9339C82.571 26.3535 82.7318 26.7523 82.983 27.093C83.142 27.381 83.31 27.515 83.513 27.515C83.693 27.5015 83.8641 27.4315 84.002 27.315C84.8299 26.6391 85.4595 25.7517 85.824 24.747C86.585 22.987 87.324 21.18 88.031 19.433L88.039 19.413C88.2617 18.8663 88.4843 18.32 88.707 17.774C88.8021 17.5866 88.8478 17.378 88.84 17.168C88.7982 17.0455 88.7218 16.9378 88.62 16.858C88.571 16.809 88.52 16.758 88.474 16.703V16.7ZM70.851 10.813C69.4737 10.8438 68.1 10.9664 66.739 11.18C66.331 11.235 65.91 11.292 65.494 11.342C65.5492 11.4036 65.5982 11.4706 65.64 11.542C65.6949 11.6243 65.7318 11.7173 65.7482 11.8148C65.7645 11.9124 65.7601 12.0123 65.735 12.108C65.7 12.1965 65.6461 12.2764 65.577 12.3418C65.5079 12.4073 65.4253 12.4569 65.335 12.487C65.2573 12.5211 65.1757 12.5453 65.092 12.559C63.5513 12.9218 62.1592 13.7491 61.104 14.929C60.2426 15.6101 59.5855 16.5154 59.2048 17.5454C58.8242 18.5754 58.7346 19.6904 58.946 20.768C59.119 21.597 59.346 21.935 59.746 21.935C60.082 21.8972 60.4026 21.7735 60.677 21.576C61.177 21.276 61.677 20.945 62.166 20.628C62.76 20.24 63.374 19.839 63.996 19.478C65.302 18.718 66.647 17.978 67.947 17.257L67.968 17.245C68.48 16.962 69.009 16.67 69.528 16.38C69.868 16.191 70.22 15.995 70.568 15.812C70.7013 15.464 70.8367 15.1163 70.974 14.769C71.297 13.941 71.631 13.086 71.946 12.24C72.146 11.697 72.172 11.358 72.023 11.14C71.874 10.922 71.516 10.811 70.88 10.809L70.851 10.813ZM17.361 43.88H17.351C16.5823 43.9297 15.8146 43.7682 15.131 43.413C14.4293 42.9505 13.761 42.4392 13.131 41.883L13.079 41.839C12.8293 41.6356 12.6285 41.3786 12.4916 41.0871C12.3547 40.7956 12.2851 40.477 12.288 40.155C12.283 39.672 12.254 39.181 12.227 38.707C12.215 38.507 12.203 38.296 12.193 38.09C12.2566 36.2492 12.5554 34.424 13.082 32.659C13.824 29.959 14.793 27.283 15.729 24.697C15.869 24.311 16.0087 23.925 16.148 23.539L16.248 23.26C17.131 20.807 18.048 18.27 19.153 15.86L19.26 15.628C19.469 15.173 19.685 14.704 19.887 14.236C19.9005 14.1997 19.9049 14.1606 19.8996 14.1222C19.8944 14.0839 19.8797 14.0474 19.857 14.016C19.8347 13.978 19.8034 13.9459 19.766 13.9226C19.7285 13.8992 19.686 13.8853 19.642 13.882C19.6268 13.882 19.6117 13.884 19.597 13.888C19.402 13.94 19.204 13.988 19.012 14.041C18.474 14.18 17.918 14.323 17.386 14.508C16.986 14.647 16.58 14.786 16.186 14.921C14.637 15.452 13.036 16.001 11.5 16.637C9.29778 17.4936 7.20054 18.5987 5.249 19.931C4.48974 20.4439 3.8446 21.1081 3.354 21.882C2.9692 22.4033 2.7614 23.0341 2.761 23.682C2.76694 23.8197 2.75484 23.9575 2.725 24.092C2.70105 24.2354 2.62818 24.366 2.5188 24.4617C2.40942 24.5574 2.27027 24.6123 2.125 24.617C1.9988 24.6167 1.8771 24.5701 1.783 24.486C1.31945 24.1477 0.928973 23.7193 0.634966 23.2265C0.34096 22.7337 0.149479 22.1866 0.0720002 21.618C0.0720002 21.579 0.0650002 21.54 0.0600002 21.502V21.48C-0.092861 20.5953 -0.0218698 19.6863 0.266504 18.8361C0.554877 17.9858 1.05146 17.2212 1.711 16.612C2.60859 15.7737 3.61011 15.0542 4.691 14.471C6.85706 13.3287 9.09089 12.3198 11.38 11.45C15.0977 10.0194 18.8954 8.80636 22.754 7.817C24.054 7.463 25.395 7.176 26.692 6.898C27.443 6.737 28.22 6.571 28.98 6.398C31.224 5.876 33.464 5.446 35.637 5.121C36.468 4.997 37.453 4.856 38.461 4.755C38.871 4.714 39.287 4.667 39.69 4.622C40.9909 4.45207 42.3003 4.35458 43.612 4.33H43.738C44.0771 4.3006 44.4165 4.38225 44.7051 4.56263C44.9937 4.74301 45.2158 5.01234 45.338 5.33C45.7333 6.11362 45.9039 6.99137 45.831 7.866C45.8463 8.18953 45.7354 8.50636 45.5216 8.74965C45.3078 8.99294 45.0078 9.14365 44.685 9.17L44.398 9.23H44.377C43.5116 9.4338 42.6327 9.57516 41.747 9.653C40.0321 9.74725 38.3234 9.93217 36.628 10.207C35.686 10.367 34.741 10.526 33.828 10.679C32.642 10.879 31.415 11.084 30.203 11.292C29.96 11.334 29.715 11.392 29.479 11.448C29.326 11.484 29.167 11.522 29.01 11.555H28.995C27.538 11.86 27.538 11.86 26.832 13.087C26.6451 13.4027 26.4752 13.7282 26.323 14.062C26.041 14.699 25.762 15.351 25.492 15.981C24.946 17.256 24.382 18.574 23.766 19.84C22.901 21.624 22.201 23.442 21.501 25.3C20.981 26.676 20.501 28.091 20.027 29.459L19.941 29.71C19.741 30.284 19.556 30.872 19.375 31.44C19.227 31.901 19.075 32.378 18.919 32.84C18.4811 34 18.1856 35.2088 18.039 36.44C17.9982 36.805 17.9314 37.1666 17.839 37.522C17.788 37.742 17.739 37.969 17.695 38.195C17.3941 39.6428 17.4915 41.1452 17.977 42.542L18.002 42.608C18.0277 42.6694 18.0491 42.7326 18.066 42.797C18.1069 42.9326 18.1169 43.0756 18.0955 43.2155C18.074 43.3555 18.0216 43.4889 17.942 43.606C17.8741 43.6947 17.7859 43.7659 17.6848 43.8136C17.5837 43.8612 17.4727 43.884 17.361 43.88Z" fill="black"/>
<g id="Clip path group">
<mask id="mask0_4_2989" style="mask-type:luminance" maskUnits="userSpaceOnUse" x="-1" y="-1" width="162" height="51">
<g id="clip-path">
<path id="Logo_2" d="M129.534 49.922C128.969 49.9217 128.416 49.7656 127.934 49.471C126.797 48.8464 125.885 47.8811 125.326 46.711C124.812 45.4769 124.7 44.1125 125.005 42.811C125.58 39.911 126.158 37.327 126.773 34.917C126.454 35.2802 126.112 35.6235 125.751 35.945C125.026 36.5994 124.082 36.9592 123.105 36.954C122.146 36.9459 121.216 36.6304 120.45 36.054C119.229 35.2518 118.276 34.1025 117.713 32.754C117.59 32.3987 117.49 32.036 117.413 31.668C117.374 31.501 117.334 31.33 117.29 31.163C117.493 29.2732 117.921 27.4144 118.564 25.626L118.877 24.647L118.888 24.613C119.496 22.713 120.124 20.739 120.804 18.824C121.13 17.906 121.537 16.999 121.929 16.124C122.104 15.734 122.283 15.333 122.454 14.936C122.554 14.714 122.648 14.49 122.744 14.273C122.936 13.838 123.133 13.39 123.31 12.942C123.55 12.335 123.788 11.984 124.295 11.984C124.484 11.9911 124.672 12.0248 124.852 12.084C125.667 12.2984 126.447 12.6273 127.169 13.061C127.709 13.3738 128.107 13.8829 128.28 14.482C128.408 15.1011 128.338 15.7447 128.08 16.322C127.639 17.452 127.173 18.593 126.723 19.698C125.969 21.546 125.191 23.454 124.505 25.361C123.942 26.925 123.488 28.561 123.05 30.142C122.858 30.834 122.66 31.549 122.456 32.248L122.444 32.286C122.416 32.3536 122.404 32.427 122.41 32.5C122.464 32.769 122.529 33.041 122.591 33.3L122.649 33.546C122.74 33.506 122.839 33.474 122.935 33.446C123.141 33.3955 123.333 33.2995 123.497 33.165C123.814 32.851 124.139 32.537 124.453 32.234C125.768 31.0546 126.949 29.7344 127.976 28.297C128.046 28.1901 128.125 28.0897 128.213 27.997C128.31 27.8685 128.454 27.7825 128.613 27.757C128.656 27.7586 128.699 27.7703 128.737 27.7911C128.775 27.812 128.807 27.8414 128.832 27.877C129.845 24.807 130.898 21.799 132.169 18.227C132.583 17.063 133.04 15.892 133.482 14.76C133.804 13.935 134.136 13.085 134.449 12.244C134.649 11.701 134.675 11.362 134.526 11.144C134.377 10.926 134.019 10.815 133.383 10.813H133.347C131.97 10.8438 130.597 10.9664 129.236 11.18C128.17 11.324 127.068 11.472 125.975 11.526C125.664 11.541 125.346 11.549 125.031 11.549C124.677 11.549 124.316 11.539 123.958 11.521C123.636 11.504 123.097 11.477 123.106 10.958C123.112 10.591 123.438 10.558 123.726 10.534C123.789 10.528 123.847 10.523 123.902 10.514L126.078 10.187L128.405 9.837C127.887 9.89675 127.362 9.80037 126.899 9.56021C126.436 9.32004 126.055 8.94705 125.805 8.489C125.668 8.18038 125.62 7.83955 125.666 7.505C125.914 5.88947 126.382 4.31552 127.057 2.827L127.066 2.805L127.238 2.373C127.32 2.13931 127.477 1.93916 127.685 1.8033C127.892 1.66744 128.138 1.60339 128.385 1.621C128.45 1.621 128.518 1.621 128.585 1.631C129.77 1.69497 130.899 2.1601 131.785 2.95C132.203 3.23081 132.499 3.65937 132.613 4.14951C132.728 4.63965 132.653 5.15502 132.403 5.592C131.803 7.05988 130.839 8.35102 129.603 9.344C129.298 9.58379 128.938 9.74454 128.556 9.812C129.762 9.632 130.546 9.517 131.264 9.412L131.807 9.331C132.625 9.18847 133.452 9.1016 134.282 9.071C134.71 9.08525 135.132 8.96156 135.485 8.71815C135.837 8.47475 136.102 8.12449 136.241 7.719C136.741 6.529 137.207 5.274 137.666 3.883C137.96 2.992 138.155 2.676 138.666 2.676C138.938 2.68906 139.207 2.73746 139.466 2.82L139.783 2.906C140.64 3.05268 141.437 3.4397 142.083 4.022C142.472 4.35641 142.759 4.79425 142.91 5.28482C143.061 5.7754 143.069 6.29865 142.935 6.794C142.813 7.26 142.816 7.546 142.947 7.724C143.078 7.902 143.34 7.984 143.823 7.997C144.023 8.003 144.246 8.005 144.512 8.005H145.054H145.596V7.805H145.713C146.032 7.805 146.355 7.805 146.668 7.805H146.683C147.039 7.805 147.407 7.805 147.769 7.805C148.453 7.805 149.007 7.814 149.513 7.835C149.926 7.83899 150.323 7.99125 150.633 8.264C150.798 8.41848 150.917 8.61551 150.978 8.8334C151.038 9.05129 151.037 9.28161 150.975 9.499C150.877 9.72501 150.719 9.91976 150.518 10.0619C150.317 10.2041 150.081 10.2882 149.835 10.305C149.225 10.394 148.597 10.424 147.989 10.452C147.767 10.462 147.538 10.473 147.314 10.487L146.481 10.537C145.35 10.606 144.181 10.677 143.028 10.724C142.604 10.7047 142.185 10.8232 141.834 11.0619C141.483 11.3006 141.219 11.6466 141.081 12.048C140.632 13.148 140.152 14.255 139.688 15.327C138.32 18.2796 137.182 21.3333 136.283 24.461C136.024 25.461 135.66 26.446 135.309 27.401C135.066 28.061 134.816 28.742 134.601 29.42C133.989 31.36 133.406 33.344 132.87 35.32C132.334 37.296 131.838 39.286 131.356 41.22L131.156 42.028C130.962 42.806 130.744 43.728 130.592 44.661C130.575 44.8837 130.605 45.1073 130.679 45.318C130.706 45.418 130.734 45.518 130.753 45.618C130.84 45.572 130.936 45.533 131.029 45.494C131.233 45.4291 131.42 45.3175 131.573 45.168C132.13 44.5235 132.636 43.8364 133.086 43.113C134.427 40.87 135.794 38.524 137.266 35.94C137.966 34.712 138.666 33.453 139.335 32.24L139.91 31.202C139.345 29.457 139.257 27.5924 139.656 25.802C140.268 22.2407 141.861 18.9206 144.256 16.215C145.224 15.2092 146.266 14.2775 147.374 13.428C147.674 13.19 147.974 12.943 148.274 12.697C148.638 12.3935 149.1 12.2319 149.574 12.242C149.909 12.2472 150.241 12.3015 150.56 12.403C150.85 12.49 151.149 12.568 151.438 12.643C151.922 12.7596 152.4 12.9011 152.87 13.067L153.034 13.128H153.042C153.746 13.3472 154.41 13.6763 155.011 14.103C155.507 14.5191 155.864 15.077 156.033 15.7018C156.203 16.3265 156.177 16.9882 155.96 17.598C155.276 20.2059 154.322 22.7356 153.114 25.146L153.052 25.278C152.59 26.3254 152.062 27.3427 151.472 28.324C150.976 29.0608 150.39 29.7327 149.728 30.324C149.436 30.612 149.043 30.7736 148.633 30.774C148.364 30.7686 148.098 30.7151 147.848 30.616C146.922 30.3062 146.083 29.7796 145.401 29.08C145.182 28.845 144.909 28.552 144.614 28.552C144.512 28.5536 144.413 28.5864 144.33 28.646C144.017 28.9175 143.819 29.2972 143.774 29.709C143.643 30.5098 143.617 31.3244 143.697 32.132C143.923 33.754 144.804 34.685 146.112 34.685C146.301 34.6841 146.49 34.6674 146.677 34.635C148.265 34.348 149.738 33.6132 150.923 32.517C152.925 30.6695 154.763 28.6523 156.417 26.488C157.391 25.276 158.43 24.088 159.435 22.935L159.892 22.412C160.006 22.3026 160.143 22.2194 160.292 22.168C160.361 22.138 160.431 22.108 160.492 22.068C160.521 22.1558 160.554 22.2419 160.592 22.326C160.687 22.4851 160.729 22.6705 160.711 22.855L160.681 22.955C160.244 24.7875 159.5 26.5329 158.481 28.117C158.043 28.723 157.607 29.347 157.181 29.95C156.405 31.06 155.602 32.207 154.758 33.293C153.968 34.2914 153.085 35.2119 152.12 36.042C151.164 36.836 149.944 37.2415 148.703 37.178C148.552 37.178 148.395 37.178 148.235 37.165C148.113 37.172 147.99 37.175 147.869 37.175C146.099 37.1122 144.402 36.4608 143.044 35.324C142.089 34.6294 141.274 33.7597 140.644 32.761C140.543 33.1476 140.422 33.5284 140.28 33.902C139.303 36.452 138.172 39.112 136.822 42.035C136.046 43.6512 135.182 45.2239 134.235 46.746C133.482 48.1463 132.224 49.2072 130.717 49.713C130.336 49.8423 129.937 49.9127 129.534 49.922ZM150.969 16.7C150.877 16.762 150.793 16.815 150.711 16.866C150.558 16.9549 150.413 17.0576 150.278 17.173C150.114 17.325 149.96 17.493 149.811 17.657C149.711 17.771 149.599 17.889 149.489 18C147.635 19.9363 146.166 22.2072 145.16 24.692C145.006 25.0864 144.955 25.5133 145.01 25.9329C145.066 26.3525 145.227 26.7513 145.478 27.092C145.637 27.38 145.805 27.514 146.009 27.514C146.189 27.5005 146.36 27.4305 146.498 27.314C147.326 26.638 147.955 25.7507 148.32 24.746C149.081 22.987 149.82 21.181 150.526 19.434L150.54 19.399C150.761 18.857 150.982 18.315 151.203 17.773C151.298 17.5857 151.344 17.377 151.336 17.167C151.294 17.0445 151.218 16.9368 151.116 16.857C151.066 16.808 151.016 16.757 150.969 16.702V16.7ZM67.039 49.922C66.4743 49.9217 65.9207 49.7656 65.439 49.471C64.3024 48.8464 63.3903 47.8811 62.831 46.711C62.3173 45.4769 62.2049 44.1125 62.51 42.811C63.4236 37.9785 64.6302 33.2061 66.123 28.52C67.188 25.261 68.312 22.048 69.67 18.228C69.763 17.968 69.86 17.7 69.97 17.408C69.815 17.52 69.67 17.617 69.539 17.708C69.267 17.889 68.985 18.061 68.713 18.226C68.0781 18.5843 67.4808 19.0054 66.93 19.483C66.369 19.9612 65.7593 20.3791 65.111 20.73C64.811 20.909 64.494 21.093 64.196 21.289L63.896 21.489C63.264 21.903 62.609 22.331 61.996 22.789C60.846 23.642 60.733 24.078 61.325 25.38C61.433 25.617 61.551 25.853 61.665 26.08C61.779 26.307 61.89 26.531 61.996 26.762C62.7019 28.2257 62.936 29.8725 62.666 31.475C62.3406 33.0432 61.6391 34.5089 60.622 35.746C60.1695 36.2552 59.6092 36.6571 58.9817 36.9223C58.3542 37.1875 57.6755 37.3093 56.995 37.279C56.887 37.279 56.784 37.286 56.673 37.286H56.391H56.109C53.9131 37.1998 51.8019 36.4159 50.082 35.048L50 35.178C49.7098 35.6709 49.2963 36.0797 48.8 36.3642C48.3038 36.6486 47.742 36.7988 47.17 36.8C46.3812 36.7826 45.6136 36.5419 44.956 36.106C43.9977 35.5431 43.192 34.7539 42.6094 33.8074C42.0267 32.861 41.685 31.7861 41.614 30.677C41.5846 30.2726 41.522 29.8712 41.427 29.477C41.382 29.295 41.213 28.989 41.105 28.984H41.091C40.9922 28.9961 40.8972 29.0291 40.8121 29.0808C40.7271 29.1326 40.6541 29.2018 40.598 29.284C40.174 29.902 39.752 30.538 39.344 31.153C38.553 32.346 37.735 33.58 36.862 34.736C36.5536 35.2404 36.1254 35.6608 35.6155 35.96C35.1056 36.2592 34.5297 36.4278 33.939 36.451C33.849 36.451 33.757 36.451 33.665 36.44C33.445 36.422 33.22 36.413 33.004 36.405C32.0911 36.4622 31.1845 36.2207 30.421 35.717C29.5204 35.0759 28.7839 34.2312 28.2714 33.2517C27.759 32.2721 27.4851 31.1854 27.472 30.08C27.3427 28.003 27.8673 25.9376 28.972 24.174C29.396 23.491 29.805 22.774 30.2 22.09C30.8622 20.8871 31.5854 19.7189 32.367 18.59C33.1046 17.6218 33.9185 16.7142 34.801 15.876C35.153 15.524 35.516 15.161 35.863 14.795C35.948 14.705 36.032 14.612 36.114 14.521C36.3801 14.1945 36.6924 13.9085 37.041 13.672C37.6876 13.297 38.4258 13.1094 39.173 13.13H39.345C41.5615 13.1821 43.6901 14.007 45.363 15.462C45.5753 15.6897 45.8513 15.8483 46.155 15.917C46.404 15.917 46.567 15.656 46.782 15.174C46.865 14.987 46.955 14.786 47.043 14.581C47.462 13.603 47.654 13.287 48.315 13.287C48.599 13.2964 48.8821 13.3258 49.162 13.375C49.6229 13.4633 50.0608 13.6451 50.4487 13.9093C50.8366 14.1735 51.1661 14.5144 51.417 14.911C51.6519 15.2405 51.8173 15.6143 51.9033 16.0096C51.9892 16.405 51.9939 16.8138 51.917 17.211C51.6653 18.1642 51.3424 19.0972 50.951 20.002C50.789 20.402 50.621 20.82 50.469 21.232C50.28 21.744 50.091 22.261 49.908 22.762C49.494 23.894 49.065 25.062 48.626 26.21C48.459 26.645 48.27 27.078 48.088 27.496C47.846 28.05 47.596 28.623 47.395 29.207C47.0578 30.194 46.7905 31.2035 46.595 32.228C46.5833 32.4895 46.6405 32.7496 46.761 32.982C46.808 33.101 46.861 33.225 46.89 33.342C46.997 33.311 47.113 33.288 47.226 33.267C47.4653 33.2449 47.6949 33.1619 47.893 33.026L47.925 33L47.96 32.969C47.8422 32.7399 47.7995 32.4796 47.8379 32.225C47.8763 31.9703 47.9939 31.7341 48.174 31.55C48.6986 30.8293 49.3125 30.1781 50.001 29.612C51.324 28.54 52.701 27.489 54.032 26.472C54.519 26.1 55.023 25.716 55.522 25.332C55.622 25.256 55.722 25.182 55.822 25.111C55.96 25.011 56.103 24.911 56.236 24.801C56.395 24.7084 56.533 24.5838 56.6414 24.4351C56.7497 24.2864 56.826 24.1169 56.8655 23.9372C56.905 23.7575 56.9068 23.5715 56.8707 23.3911C56.8346 23.2107 56.7615 23.0397 56.656 22.889C56.278 22.094 55.888 21.272 55.456 20.484C54.9058 19.5364 54.5805 18.4752 54.5051 17.3821C54.4297 16.289 54.6062 15.1932 55.021 14.179C55.641 12.8628 56.5552 11.7067 57.693 10.8C57.9128 10.5998 58.1501 10.4198 58.402 10.262C59.073 9.78091 59.8684 9.50318 60.693 9.462C60.924 9.46244 61.1543 9.48758 61.38 9.537C62.1371 9.69037 62.8798 9.90782 63.6 10.187C65.446 9.908 67.11 9.658 68.773 9.418L69.316 9.337C70.1342 9.19447 70.9611 9.1076 71.791 9.077C72.2193 9.09125 72.6408 8.96756 72.9935 8.72415C73.3462 8.48075 73.6114 8.13049 73.75 7.725C74.25 6.535 74.716 5.28 75.175 3.889C75.469 2.998 75.664 2.682 76.175 2.682C76.4468 2.69505 76.7157 2.74345 76.975 2.826L77.292 2.912C78.1489 3.05868 78.9465 3.4457 79.592 4.028C79.9808 4.36275 80.2669 4.80075 80.4171 5.2913C80.5674 5.78186 80.5756 6.30493 80.441 6.8C80.319 7.266 80.322 7.552 80.453 7.73C80.584 7.908 80.846 7.99 81.33 8.003C81.53 8.009 81.753 8.011 82.019 8.011H82.561L83.101 8V7.8H83.218C83.537 7.8 83.86 7.8 84.173 7.8H84.188C84.544 7.8 84.912 7.8 85.274 7.8C85.957 7.8 86.512 7.809 87.018 7.83C87.431 7.83402 87.8288 7.98626 88.139 8.259C88.3041 8.41348 88.4234 8.61051 88.4837 8.8284C88.544 9.04629 88.5431 9.27661 88.481 9.494C88.3831 9.72015 88.2249 9.915 88.0236 10.0572C87.8224 10.1993 87.5858 10.2834 87.34 10.3C86.73 10.389 86.102 10.419 85.494 10.447C85.272 10.457 85.043 10.468 84.819 10.482L83.986 10.532C82.853 10.601 81.686 10.672 80.533 10.719C80.109 10.6997 79.6901 10.8182 79.3391 11.0569C78.9881 11.2956 78.7239 11.6416 78.586 12.043C78.137 13.143 77.658 14.249 77.195 15.319C75.8286 18.2714 74.6919 21.3248 73.795 24.452C73.536 25.452 73.172 26.438 72.821 27.393C72.579 28.052 72.328 28.733 72.113 29.412C71.501 31.352 70.918 33.336 70.382 35.312C69.846 37.288 69.35 39.278 68.868 41.212L68.668 42.02C68.474 42.798 68.256 43.72 68.104 44.653C68.0874 44.8757 68.1171 45.0993 68.191 45.31C68.218 45.41 68.246 45.51 68.265 45.61C68.352 45.564 68.448 45.525 68.541 45.486C68.7452 45.4211 68.9315 45.3095 69.085 45.16C69.6421 44.5155 70.148 43.8284 70.598 43.105C71.939 40.862 73.306 38.516 74.778 35.932C75.478 34.702 76.178 33.443 76.849 32.226L76.873 32.182L77.422 31.191C76.8567 29.446 76.769 27.5814 77.168 25.791C77.78 22.2298 79.373 18.9098 81.768 16.204C82.736 15.1982 83.7783 14.2665 84.886 13.417C85.186 13.179 85.486 12.932 85.786 12.686C86.1503 12.3825 86.612 12.2209 87.086 12.231C87.4208 12.2362 87.753 12.2905 88.072 12.392C88.362 12.479 88.66 12.556 88.949 12.631C89.434 12.7479 89.9126 12.8898 90.383 13.056L90.556 13.121C91.2589 13.3401 91.9227 13.6688 92.523 14.095C93.0189 14.5111 93.3757 15.069 93.5453 15.6938C93.7149 16.3185 93.6894 16.9802 93.472 17.59C92.7878 20.1979 91.834 22.7276 90.626 25.138L90.56 25.279C90.099 26.3234 89.5726 27.3378 88.984 28.316C88.4883 29.0528 87.9025 29.7247 87.24 30.316C86.9482 30.604 86.5549 30.7656 86.145 30.766C85.876 30.7607 85.6101 30.7071 85.36 30.608C84.4346 30.2971 83.5967 29.7698 82.916 29.07C82.697 28.835 82.424 28.542 82.129 28.542C82.027 28.5436 81.9279 28.5764 81.845 28.636C81.5325 28.9077 81.3339 29.2873 81.289 29.699C81.1575 30.4998 81.1317 31.3144 81.212 32.122C81.438 33.744 82.319 34.675 83.627 34.675C83.8164 34.6741 84.0054 34.6574 84.192 34.625C85.7802 34.338 87.2534 33.6032 88.438 32.507C90.4397 30.6595 92.2779 28.6423 93.932 26.478C94.426 25.863 94.973 25.209 95.653 24.419C96.3676 21.8103 97.2293 19.2442 98.234 16.733C99.043 14.646 99.927 12.51 100.862 10.385C101.262 9.474 101.703 8.564 102.128 7.685C102.553 6.806 102.988 5.908 103.387 5.002C103.908 3.821 104.355 2.577 104.787 1.374L104.931 0.974001C105.189 0.258001 105.473 -0.00799942 105.978 -0.00799942C106.226 0.000608673 106.471 0.0412811 106.708 0.113001C107.712 0.43901 108.589 1.07039 109.217 1.919C109.478 2.19926 109.653 2.54798 109.723 2.92433C109.792 3.30067 109.753 3.68906 109.61 4.044L109.505 4.299C109.062 5.372 108.605 6.481 108.179 7.585C108.066 7.878 107.972 8.185 107.879 8.485C107.77 8.87852 107.636 9.26493 107.479 9.642C107.079 10.536 106.656 11.436 106.247 12.307C105.599 13.686 104.929 15.107 104.335 16.546C103.597 18.329 102.935 20.186 102.301 21.983C102.112 22.515 101.918 23.064 101.723 23.606C101.55 24.088 101.408 24.593 101.271 25.082V25.088C101.208 25.313 101.143 25.546 101.071 25.774L101.179 25.802H101.19L101.326 25.838C101.789 25.099 102.255 24.348 102.707 23.621C103.754 21.936 104.836 20.195 105.93 18.502C107.132 16.7407 108.659 15.2252 110.43 14.037C110.935 13.6819 111.539 13.4969 112.156 13.509C112.452 13.5092 112.747 13.5427 113.035 13.609C113.948 13.8161 114.836 14.1226 115.682 14.523C117.674 15.472 118.205 17.332 118.614 19.318C118.799 20.5756 118.747 21.8567 118.46 23.095C118.417 23.35 118.373 23.611 118.334 23.868C117.867 26.8204 116.823 29.6519 115.262 32.201C115.018 32.6395 114.711 33.0403 114.352 33.391L114.111 33.614C113.167 34.486 112.192 35.388 111.153 36.177C110.409 36.7405 109.497 37.0352 108.564 37.013C107.755 36.9958 106.953 36.8531 106.188 36.59C106.019 36.536 105.847 36.483 105.68 36.432C104.529 36.1728 103.457 35.6409 102.555 34.881C102.394 34.71 102.173 34.6084 101.939 34.598C101.796 34.6077 101.657 34.6474 101.53 34.7146C101.403 34.7818 101.292 34.875 101.204 34.988C100.96 35.3192 100.649 35.5959 100.292 35.8005C99.9351 36.005 99.5393 36.1329 99.13 36.176C98.8442 36.1724 98.5618 36.114 98.298 36.004C97.1355 35.5253 96.1552 34.6895 95.4986 33.6173C94.842 32.5452 94.5431 31.2921 94.645 30.039L94.601 30.1C93.901 31.1 93.101 32.238 92.277 33.3C91.4874 34.2984 90.604 35.2189 89.639 36.049C88.6829 36.843 87.4632 37.2485 86.222 37.185C86.071 37.185 85.914 37.185 85.755 37.172C85.633 37.179 85.51 37.182 85.389 37.182C83.6195 37.1192 81.9215 36.4678 80.564 35.331C79.6089 34.6364 78.7944 33.7667 78.164 32.768C78.0632 33.1546 77.9416 33.5354 77.8 33.909C76.823 36.459 75.692 39.119 74.342 42.042C73.5665 43.6585 72.7028 45.2312 71.755 46.753C71.0022 48.1533 69.7442 49.2142 68.237 49.72C67.8504 49.8484 67.4463 49.9165 67.039 49.922ZM42.735 16.2C42.4665 16.2004 42.2029 16.273 41.972 16.41C40.5424 17.3023 39.2505 18.3981 38.137 19.663C36.6359 21.3389 35.3113 23.1649 34.184 25.112C33.0445 26.8903 32.1908 28.8363 31.654 30.879C31.5671 31.2894 31.506 31.7049 31.471 32.123C31.451 32.313 31.43 32.51 31.405 32.702L31.518 32.72C31.524 32.797 31.53 32.875 31.535 32.952C31.548 33.138 31.561 33.33 31.591 33.518C31.6134 33.616 31.6512 33.7099 31.703 33.796C31.72 33.828 31.737 33.861 31.753 33.896C31.953 34.313 32.143 34.491 32.387 34.491C32.5623 34.4787 32.7315 34.4211 32.878 34.324C33.1699 34.1545 33.4301 33.9356 33.647 33.677L33.847 33.437C34.3655 32.8481 34.851 32.2308 35.301 31.588C36.084 30.42 36.861 29.223 37.614 28.065C38.273 27.052 38.954 26.004 39.635 24.98C41.359 22.386 42.794 20.273 44.151 18.328C44.3063 18.1406 44.3898 17.904 44.3865 17.6607C44.3832 17.4173 44.2933 17.1831 44.133 17C43.9837 16.762 43.778 16.5645 43.5342 16.425C43.2903 16.2854 43.0158 16.2082 42.735 16.2ZM57.889 26.593C57.6138 26.6216 57.3549 26.7372 57.15 26.923C55.41 28.264 53.841 29.478 52.244 30.748C51.6714 31.1888 51.1384 31.6786 50.651 32.212C50.5194 32.3293 50.4193 32.4777 50.3599 32.6437C50.3005 32.8096 50.2837 32.9879 50.311 33.162C50.3767 33.3184 50.4811 33.4556 50.6144 33.5606C50.7477 33.6655 50.9055 33.7348 51.073 33.762C51.5504 33.8904 52.0349 33.9906 52.524 34.062C52.734 34.097 52.951 34.133 53.163 34.173L53.184 34.035C53.251 34.035 53.319 34.035 53.384 34.035C53.449 34.035 53.518 34.035 53.584 34.035C53.6611 34.0354 53.7382 34.0318 53.815 34.024C53.976 34.007 54.141 33.995 54.3 33.984C54.9885 34.0156 55.6675 33.8129 56.226 33.409C57.0832 32.6971 57.7438 31.7775 58.1449 30.7378C58.5459 29.6982 58.674 28.5732 58.517 27.47C58.449 26.9 58.23 26.593 57.889 26.593ZM113.25 16.485C112.924 16.4981 112.611 16.6187 112.361 16.828C112.151 17.028 111.938 17.218 111.732 17.406C110.775 18.2204 109.906 19.132 109.137 20.126C107.699 22.133 106.425 24.291 105.137 26.51C104.572 27.482 104.07 28.518 103.584 29.519C103.327 30.049 103.062 30.596 102.789 31.128C102.654 31.4111 102.61 31.7293 102.664 32.0384C102.717 32.3475 102.866 32.6322 103.089 32.853C103.327 33.207 103.644 33.5002 104.016 33.7086C104.388 33.9171 104.804 34.0351 105.23 34.053C105.795 34.0436 106.34 33.8386 106.771 33.473C108.133 32.4974 109.297 31.2724 110.202 29.863C110.425 29.469 110.671 29.079 110.909 28.701C111.401 27.9693 111.827 27.1956 112.182 26.389C112.747 24.9089 113.189 23.3843 113.501 21.831C113.701 20.907 113.817 19.938 113.926 19.001C113.975 18.583 114.026 18.151 114.083 17.728C114.019 17.586 113.965 17.428 113.913 17.28C113.799 16.948 113.691 16.635 113.494 16.537C113.418 16.5014 113.334 16.4836 113.25 16.485ZM88.474 16.7C88.382 16.762 88.297 16.815 88.215 16.867C88.0619 16.9559 87.9173 17.0587 87.783 17.174C87.619 17.326 87.465 17.494 87.316 17.658C87.216 17.772 87.104 17.89 86.994 18.001C85.1401 19.9373 83.671 22.2082 82.665 24.693C82.5112 25.0874 82.4598 25.5143 82.5154 25.9339C82.571 26.3535 82.7318 26.7523 82.983 27.093C83.142 27.381 83.31 27.515 83.513 27.515C83.693 27.5015 83.8641 27.4315 84.002 27.315C84.8299 26.6391 85.4595 25.7517 85.824 24.747C86.585 22.987 87.324 21.18 88.031 19.433L88.039 19.413C88.2617 18.8663 88.4843 18.32 88.707 17.774C88.8021 17.5866 88.8478 17.378 88.84 17.168C88.7982 17.0455 88.7218 16.9378 88.62 16.858C88.571 16.809 88.52 16.758 88.474 16.703V16.7ZM70.851 10.813C69.4737 10.8438 68.1 10.9664 66.739 11.18C66.331 11.235 65.91 11.292 65.494 11.342C65.5492 11.4036 65.5982 11.4706 65.64 11.542C65.6949 11.6243 65.7318 11.7173 65.7482 11.8148C65.7645 11.9124 65.7601 12.0123 65.735 12.108C65.7 12.1965 65.6461 12.2764 65.577 12.3418C65.5079 12.4073 65.4253 12.4569 65.335 12.487C65.2573 12.5211 65.1757 12.5453 65.092 12.559C63.5513 12.9218 62.1592 13.7491 61.104 14.929C60.2426 15.6101 59.5855 16.5154 59.2048 17.5454C58.8242 18.5754 58.7346 19.6904 58.946 20.768C59.119 21.597 59.346 21.935 59.746 21.935C60.082 21.8972 60.4026 21.7735 60.677 21.576C61.177 21.276 61.677 20.945 62.166 20.628C62.76 20.24 63.374 19.839 63.996 19.478C65.302 18.718 66.647 17.978 67.947 17.257L67.968 17.245C68.48 16.962 69.009 16.67 69.528 16.38C69.868 16.191 70.22 15.995 70.568 15.812C70.7013 15.464 70.8367 15.1163 70.974 14.769C71.297 13.941 71.631 13.086 71.946 12.24C72.146 11.697 72.172 11.358 72.023 11.14C71.874 10.922 71.516 10.811 70.88 10.809L70.851 10.813ZM17.361 43.88H17.351C16.5823 43.9297 15.8146 43.7682 15.131 43.413C14.4293 42.9505 13.761 42.4392 13.131 41.883L13.079 41.839C12.8293 41.6356 12.6285 41.3786 12.4916 41.0871C12.3547 40.7956 12.2851 40.477 12.288 40.155C12.283 39.672 12.254 39.181 12.227 38.707C12.215 38.507 12.203 38.296 12.193 38.09C12.2566 36.2492 12.5554 34.424 13.082 32.659C13.824 29.959 14.793 27.283 15.729 24.697C15.869 24.311 16.0087 23.925 16.148 23.539L16.248 23.26C17.131 20.807 18.048 18.27 19.153 15.86L19.26 15.628C19.469 15.173 19.685 14.704 19.887 14.236C19.9005 14.1997 19.9049 14.1606 19.8996 14.1222C19.8944 14.0839 19.8797 14.0474 19.857 14.016C19.8347 13.978 19.8034 13.9459 19.766 13.9226C19.7285 13.8992 19.686 13.8853 19.642 13.882C19.6268 13.882 19.6117 13.884 19.597 13.888C19.402 13.94 19.204 13.988 19.012 14.041C18.474 14.18 17.918 14.323 17.386 14.508C16.986 14.647 16.58 14.786 16.186 14.921C14.637 15.452 13.036 16.001 11.5 16.637C9.29778 17.4936 7.20054 18.5987 5.249 19.931C4.48974 20.4439 3.8446 21.1081 3.354 21.882C2.9692 22.4033 2.7614 23.0341 2.761 23.682C2.76694 23.8197 2.75484 23.9575 2.725 24.092C2.70105 24.2354 2.62818 24.366 2.5188 24.4617C2.40942 24.5574 2.27027 24.6123 2.125 24.617C1.9988 24.6167 1.8771 24.5701 1.783 24.486C1.31945 24.1477 0.928973 23.7193 0.634966 23.2265C0.34096 22.7337 0.149479 22.1866 0.0720002 21.618C0.0720002 21.579 0.0650002 21.54 0.0600002 21.502V21.48C-0.092861 20.5953 -0.0218698 19.6863 0.266504 18.8361C0.554877 17.9858 1.05146 17.2212 1.711 16.612C2.60859 15.7737 3.61011 15.0542 4.691 14.471C6.85706 13.3287 9.09089 12.3198 11.38 11.45C15.0977 10.0194 18.8954 8.80636 22.754 7.817C24.054 7.463 25.395 7.176 26.692 6.898C27.443 6.737 28.22 6.571 28.98 6.398C31.224 5.876 33.464 5.446 35.637 5.121C36.468 4.997 37.453 4.856 38.461 4.755C38.871 4.714 39.287 4.667 39.69 4.622C40.9909 4.45207 42.3003 4.35458 43.612 4.33H43.738C44.0771 4.3006 44.4165 4.38225 44.7051 4.56263C44.9937 4.74301 45.2158 5.01234 45.338 5.33C45.7333 6.11362 45.9039 6.99137 45.831 7.866C45.8463 8.18953 45.7354 8.50636 45.5216 8.74965C45.3078 8.99294 45.0078 9.14365 44.685 9.17L44.398 9.23H44.377C43.5116 9.4338 42.6327 9.57516 41.747 9.653C40.0321 9.74725 38.3234 9.93217 36.628 10.207C35.686 10.367 34.741 10.526 33.828 10.679C32.642 10.879 31.415 11.084 30.203 11.292C29.96 11.334 29.715 11.392 29.479 11.448C29.326 11.484 29.167 11.522 29.01 11.555H28.995C27.538 11.86 27.538 11.86 26.832 13.087C26.6451 13.4027 26.4752 13.7282 26.323 14.062C26.041 14.699 25.762 15.351 25.492 15.981C24.946 17.256 24.382 18.574 23.766 19.84C22.901 21.624 22.201 23.442 21.501 25.3C20.981 26.676 20.501 28.091 20.027 29.459L19.941 29.71C19.741 30.284 19.556 30.872 19.375 31.44C19.227 31.901 19.075 32.378 18.919 32.84C18.4811 34 18.1856 35.2088 18.039 36.44C17.9982 36.805 17.9314 37.1666 17.839 37.522C17.788 37.742 17.739 37.969 17.695 38.195C17.3941 39.6428 17.4915 41.1452 17.977 42.542L18.002 42.608C18.0277 42.6694 18.0491 42.7326 18.066 42.797C18.1069 42.9326 18.1169 43.0756 18.0955 43.2155C18.074 43.3555 18.0216 43.4889 17.942 43.606C17.8741 43.6947 17.7859 43.7659 17.6848 43.8136C17.5837 43.8612 17.4727 43.884 17.361 43.88Z" fill="white"/>
</g>
</mask>
<g mask="url(#mask0_4_2989)">
<g id="Mask Group 2">
<path id="Color" d="M161 0H0V50H161V0Z" fill="black"/>
</g>
</g>
</g>
</g>
</g>
<defs>
<clipPath id="clip0_4_2989">
<rect width="161" height="50" fill="white"/>
</clipPath>
</defs>
</svg>
