<svg width="20" height="18" viewBox="0 0 20 18" fill="none" xmlns="http://www.w3.org/2000/svg">
<path d="M6.89267 17.3019C4.62586 17.2773 2.40245 16.6772 0.430966 15.5579C0.270375 15.4681 0.143971 15.3278 0.0714428 15.1587C-0.00108542 14.9896 -0.015666 14.8012 0.029972 14.623C0.07561 14.4447 0.178904 14.2866 0.323766 14.1731C0.468628 14.0597 0.646925 13.9974 0.830886 13.9959H0.868879C0.986855 13.9959 1.10583 14.0029 1.22281 14.0029C2.50255 14.0009 3.7669 13.7236 4.93007 13.1899C3.23855 12.2085 1.96253 10.6443 1.34078 8.78988C0.787142 6.97102 0.782969 5.02911 1.32879 3.20788C1.43619 2.79367 1.57387 2.38792 1.7407 1.99388C1.801 1.85944 1.89587 1.7434 2.01563 1.6576C2.1354 1.57179 2.27578 1.5193 2.42245 1.50548C2.56911 1.49165 2.71683 1.51699 2.85051 1.57889C2.9842 1.6408 3.09907 1.73707 3.18342 1.85788C3.84289 2.79601 4.69519 3.58236 5.68321 4.16426C6.67123 4.74615 7.77216 5.11015 8.91227 5.23188L9.16722 5.25488V5.05488C9.19892 4.18776 9.47694 3.34762 9.96873 2.63281C10.4605 1.91801 11.1457 1.35812 11.9441 1.0187C12.7425 0.67928 13.6211 0.574373 14.4769 0.716261C15.3328 0.85815 16.1305 1.24096 16.7767 1.81988C17.4539 1.57157 18.0956 1.23536 18.6853 0.819881C18.8247 0.719886 18.9917 0.665718 19.1632 0.664881C19.2911 0.665972 19.4171 0.695843 19.5318 0.752277C19.6466 0.808712 19.7471 0.890263 19.8261 0.990881C19.9039 1.08919 19.9578 1.2042 19.9836 1.32687C20.0095 1.44954 20.0065 1.57654 19.9751 1.69788C19.6897 2.86752 19.1188 3.9481 18.3134 4.84288C18.3254 4.98088 18.3324 5.11888 18.3324 5.25088C18.3471 6.9569 18.0341 8.64988 17.4106 10.2379C16.5806 12.3434 15.1301 14.1466 13.2516 15.4083C11.373 16.67 9.15527 17.3304 6.89267 17.3019ZM2.83848 4.03588C2.4779 5.42969 2.50765 6.89585 2.92447 8.27388C3.26522 9.21673 3.80651 10.0744 4.51096 10.7876C5.2154 11.5008 6.06621 12.0526 7.00465 12.4049C7.14051 12.4651 7.25779 12.5606 7.34431 12.6814C7.43084 12.8023 7.48346 12.9441 7.49672 13.0921C7.50998 13.2402 7.4834 13.389 7.41973 13.5233C7.35606 13.6576 7.25762 13.7725 7.13463 13.8559C6.20832 14.4855 5.18729 14.9628 4.11023 15.2699C5.01912 15.5112 5.9553 15.6346 6.89567 15.6369C8.16961 15.6501 9.43335 15.4086 10.6127 14.9266C11.792 14.4445 12.8632 13.7317 13.7633 12.8299C14.7248 11.8225 15.4763 10.6339 15.974 9.33325C16.4718 8.0326 16.7059 6.6459 16.6627 5.25388C16.6627 5.0733 16.6453 4.89313 16.6107 4.71588C16.585 4.58135 16.5928 4.44254 16.6334 4.31174C16.674 4.18093 16.7463 4.06215 16.8437 3.96588C17.0286 3.78372 17.2007 3.58892 17.3586 3.38288L17.0736 3.48288L16.7857 3.57388C16.6323 3.62035 16.4688 3.62147 16.3149 3.57711C16.1609 3.53276 16.023 3.44481 15.9179 3.32388C15.5275 2.87482 15.0084 2.55675 14.4312 2.41282C13.8539 2.26888 13.2463 2.30606 12.6909 2.51931C12.1354 2.73255 11.659 3.11154 11.3263 3.60485C10.9935 4.09815 10.8206 4.6819 10.8309 5.27688V6.10788C10.832 6.32552 10.7475 6.53487 10.5956 6.69072C10.4437 6.84657 10.2366 6.93642 10.019 6.94088C9.93507 6.94088 9.85008 6.94088 9.7661 6.94088C8.47226 6.94318 7.19115 6.68541 5.99885 6.18288C4.81309 5.68462 3.73866 4.9547 2.83848 4.03588Z" fill="black"/>
</svg>
