<svg width="18" height="18" viewBox="0 0 18 18" fill="none" xmlns="http://www.w3.org/2000/svg">
<path d="M15.3641 16.778L9.00012 10.414L2.63612 16.778C2.44752 16.9602 2.19491 17.0609 1.93272 17.0587C1.67052 17.0564 1.41971 16.9512 1.2343 16.7658C1.04889 16.5804 0.943722 16.3296 0.941444 16.0674C0.939166 15.8052 1.03996 15.5526 1.22212 15.364L7.58612 8.99999L1.22212 2.63599C1.03996 2.44739 0.939166 2.19479 0.941444 1.93259C0.943722 1.6704 1.04889 1.41958 1.2343 1.23417C1.41971 1.04877 1.67052 0.943598 1.93272 0.941319C2.19491 0.939041 2.44752 1.03984 2.63612 1.22199L9.00012 7.58599L15.3641 1.22199C15.5518 1.03449 15.8062 0.929197 16.0715 0.929291C16.3367 0.929385 16.5911 1.03485 16.7786 1.22249C16.9661 1.41013 17.0714 1.66458 17.0713 1.92985C17.0712 2.19512 16.9658 2.44949 16.7781 2.63699L10.4141 8.99999L16.7781 15.364C16.8736 15.4562 16.9498 15.5666 17.0022 15.6886C17.0546 15.8106 17.0822 15.9418 17.0834 16.0746C17.0845 16.2074 17.0592 16.3391 17.0089 16.4619C16.9587 16.5848 16.8844 16.6965 16.7905 16.7904C16.6966 16.8843 16.585 16.9585 16.4621 17.0088C16.3392 17.0591 16.2075 17.0844 16.0747 17.0832C15.9419 17.0821 15.8107 17.0545 15.6887 17.0021C15.5667 16.9497 15.4564 16.8735 15.3641 16.778Z" fill="black"/>
</svg>
