<svg width="20" height="20" viewBox="0 0 20 20" fill="none" xmlns="http://www.w3.org/2000/svg">
<g id="Frame" clip-path="url(#clip0_4_3009)">
<path id="Vector" d="M0.243974 15.59C0.088013 15.4336 0.000427246 15.2218 0.000427246 15.001C0.000427246 14.7802 0.088013 14.5683 0.243974 14.412L6.49397 8.16099C6.65032 8.00503 6.86214 7.91744 7.08297 7.91744C7.30381 7.91744 7.51563 8.00503 7.67197 8.16099L11.25 11.738L17.15 5.83799H14.167C14.0575 5.83799 13.9491 5.81643 13.848 5.77454C13.7469 5.73266 13.655 5.67126 13.5776 5.59386C13.5002 5.51647 13.4388 5.42458 13.3969 5.32346C13.355 5.22233 13.3335 5.11395 13.3335 5.00449C13.3335 4.89503 13.355 4.78665 13.3969 4.68552C13.4388 4.5844 13.5002 4.49251 13.5776 4.41512C13.655 4.33772 13.7469 4.27632 13.848 4.23444C13.9491 4.19255 14.0575 4.17099 14.167 4.17099H19.167C19.3872 4.17099 19.5985 4.2582 19.7546 4.41355C19.9107 4.56891 19.9989 4.77976 20 4.99999V9.99999C19.9925 10.2161 19.9014 10.4208 19.7459 10.571C19.5904 10.7212 19.3827 10.8051 19.1665 10.8051C18.9503 10.8051 18.7425 10.7212 18.587 10.571C18.4316 10.4208 18.3405 10.2161 18.333 9.99999V7.01199L11.839 13.506C11.6826 13.6623 11.4706 13.75 11.2495 13.75C11.0284 13.75 10.8164 13.6623 10.66 13.506L7.08297 9.92799L1.42297 15.589C1.26659 15.7453 1.05455 15.833 0.833474 15.833C0.612395 15.833 0.400361 15.7453 0.243974 15.589V15.59Z" fill="#FF642F"/>
</g>
<defs>
<clipPath id="clip0_4_3009">
<rect width="20" height="20" fill="white"/>
</clipPath>
</defs>
</svg>
