<svg width="16" height="20" viewBox="0 0 16 20" fill="none" xmlns="http://www.w3.org/2000/svg">
<path d="M3 19.1663C2.33696 19.1663 1.70107 18.9029 1.23223 18.434C0.763392 17.9652 0.5 17.3293 0.5 16.6663V9.99938C0.5 9.77842 0.587775 9.56651 0.744017 9.41027C0.900258 9.25403 1.11217 9.16625 1.33312 9.16625C1.55408 9.16625 1.76599 9.25403 1.92223 9.41027C2.07847 9.56651 2.16625 9.77842 2.16625 9.99938V16.6663C2.16625 16.7757 2.18782 16.8841 2.22973 16.9852C2.27164 17.0863 2.33306 17.1782 2.41049 17.2556C2.48792 17.333 2.57983 17.3943 2.68098 17.4361C2.78214 17.478 2.89054 17.4995 3 17.4994H13C13.221 17.4994 13.4329 17.4116 13.5891 17.2554C13.7453 17.0991 13.8331 16.8872 13.8331 16.6663V9.99938C13.8331 9.77842 13.9209 9.56651 14.0771 9.41027C14.2334 9.25403 14.4453 9.16625 14.6663 9.16625C14.8872 9.16625 15.0991 9.25403 15.2554 9.41027C15.4116 9.56651 15.4994 9.77842 15.4994 9.99938V16.6663C15.4994 17.3293 15.236 17.9652 14.7671 18.434C14.2983 18.9029 13.6624 19.1663 12.9994 19.1663H3ZM7.16687 12.5V3.67813L5.25563 5.58875C5.09874 5.74177 4.88787 5.82682 4.66872 5.82545C4.44956 5.82408 4.23977 5.73642 4.0848 5.58145C3.92983 5.42648 3.84217 5.21669 3.8408 4.99754C3.83944 4.77838 3.92448 4.56752 4.0775 4.41063L7.41062 1.07688C7.46736 1.02018 7.53199 0.971974 7.6025 0.933751L7.61812 0.925626H7.62313L7.63438 0.920001L7.64375 0.915626L7.65063 0.912501L7.66563 0.905626C7.7704 0.860323 7.88335 0.836952 7.9975 0.836952C8.11165 0.836952 8.2246 0.860323 8.32938 0.905626L8.34437 0.912501H8.35125L8.36125 0.917501L8.375 0.922501H8.38L8.39563 0.930626C8.46614 0.968849 8.53076 1.01706 8.5875 1.07375L11.9206 4.4075C11.9996 4.4845 12.0624 4.57641 12.1056 4.6779C12.1488 4.77939 12.1713 4.88844 12.172 4.99872C12.1727 5.109 12.1515 5.21832 12.1096 5.32033C12.0677 5.42235 12.006 5.51504 11.928 5.59302C11.85 5.671 11.7574 5.73273 11.6553 5.77461C11.5533 5.8165 11.444 5.83771 11.3337 5.83702C11.2234 5.83633 11.1144 5.81376 11.0129 5.7706C10.9114 5.72745 10.8195 5.66457 10.7425 5.58563L8.83313 3.67813V12.5C8.83313 12.721 8.74535 12.9329 8.58911 13.0891C8.43287 13.2453 8.22096 13.3331 8 13.3331C7.77904 13.3331 7.56713 13.2453 7.41089 13.0891C7.25465 12.9329 7.16687 12.721 7.16687 12.5Z" fill="black"/>
</svg>
