<svg width="14" height="18" viewBox="0 0 14 18" fill="none" xmlns="http://www.w3.org/2000/svg">
<path d="M12.833 17.335C12.6601 17.3345 12.4918 17.2796 12.3518 17.1781L7.00305 13.3575L1.65055 17.1781C1.51055 17.2796 1.3422 17.3345 1.1693 17.335C0.95374 17.3343 0.746459 17.2519 0.5893 17.1044C0.507322 17.0267 0.442253 16.9329 0.398162 16.8289C0.354071 16.7249 0.331905 16.6129 0.33305 16.5V3.16688C0.33305 2.50384 0.596442 1.86795 1.06528 1.39911C1.53412 0.93027 2.17001 0.666878 2.83305 0.666878L11.1662 0.666878C11.8292 0.666878 12.4651 0.93027 12.9339 1.39911C13.4028 1.86795 13.6662 2.50384 13.6662 3.16688V16.5C13.6655 16.7209 13.5776 16.9327 13.4215 17.0891C13.2655 17.2454 13.054 17.3339 12.833 17.335ZM7.00242 11.5C7.17633 11.4996 7.34597 11.5538 7.48742 11.655L12.003 14.8806V3.16688C12.0027 2.94591 11.9148 2.7341 11.7584 2.57791C11.6021 2.42173 11.3903 2.33392 11.1693 2.33375H2.83305C2.61208 2.33392 2.40021 2.42173 2.2439 2.57791C2.0876 2.7341 1.99963 2.94591 1.9993 3.16688V14.8806L6.51493 11.655C6.65611 11.5538 6.82557 11.4995 6.9993 11.5H7.00242Z" fill="black"/>
</svg>
