<svg width="13" height="15" viewBox="0 0 13 15" fill="none" xmlns="http://www.w3.org/2000/svg">
<path d="M1.95005 15C1.43286 15 0.936861 14.7845 0.571156 14.4009C0.205451 14.0173 0 13.497 0 12.9545V3.40891C0 2.8664 0.205451 2.3461 0.571156 1.96249C0.936861 1.57887 1.43286 1.36336 1.95005 1.36336H3.25073V0.682193C3.25724 0.50597 3.32855 0.339238 3.44971 0.216973C3.57087 0.0947087 3.73246 0.026413 3.90059 0.026413C4.06871 0.026413 4.2303 0.0947087 4.35146 0.216973C4.47262 0.339238 4.54393 0.50597 4.55044 0.682193V1.36438H8.45054V0.682193C8.45704 0.50597 8.52836 0.339238 8.64952 0.216973C8.77068 0.0947087 8.93227 0.026413 9.10039 0.026413C9.26851 0.026413 9.4301 0.0947087 9.55126 0.216973C9.67242 0.339238 9.74374 0.50597 9.75024 0.682193V1.36438H11.05C11.5671 1.36438 12.0631 1.5799 12.4288 1.96351C12.7945 2.34713 13 2.86742 13 3.40993V12.9565C13 13.499 12.7945 14.0193 12.4288 14.4029C12.0631 14.7865 11.5671 15.002 11.05 15.002L1.95005 15ZM1.29971 12.9545C1.29971 13.1354 1.36823 13.3089 1.49019 13.4368C1.61215 13.5648 1.77757 13.6366 1.95005 13.6366H11.0509C11.2231 13.6364 11.3881 13.5645 11.5098 13.4368C11.6315 13.3092 11.7 13.1361 11.7003 12.9555V6.81884H1.29971V12.9545ZM11.7003 5.45446V3.40891C11.7003 3.22798 11.6318 3.05446 11.5098 2.92653C11.3878 2.79859 11.2224 2.72672 11.05 2.72672H9.75024V3.40891C9.75024 3.58984 9.68173 3.76335 9.55976 3.89129C9.4378 4.01923 9.27238 4.0911 9.0999 4.0911C8.92742 4.0911 8.762 4.01923 8.64004 3.89129C8.51808 3.76335 8.44956 3.58984 8.44956 3.40891V2.72672H4.54946V3.40891C4.55285 3.50065 4.53855 3.59216 4.50742 3.67797C4.47629 3.76377 4.42897 3.84211 4.36829 3.90827C4.30761 3.97443 4.23482 4.02707 4.15429 4.06302C4.07376 4.09898 3.98713 4.11751 3.89961 4.11751C3.81209 4.11751 3.72546 4.09898 3.64493 4.06302C3.5644 4.02707 3.49161 3.97443 3.43093 3.90827C3.37025 3.84211 3.32293 3.76377 3.2918 3.67797C3.26067 3.59216 3.24637 3.50065 3.24976 3.40891V2.72672H1.95005C1.77757 2.72672 1.61215 2.79859 1.49019 2.92653C1.36823 3.05446 1.29971 3.22798 1.29971 3.40891V5.45446H11.7003Z" fill="black"/>
</svg>
