<svg width="22" height="28" viewBox="0 0 22 28" fill="none" xmlns="http://www.w3.org/2000/svg">
<path d="M20.3331 27.336C20.0564 27.3352 19.787 27.2474 19.5631 27.085L11.0051 20.972L2.44108 27.085C2.21708 27.2474 1.94771 27.3352 1.67108 27.336C1.32618 27.3349 0.99453 27.2031 0.743075 26.967C0.61191 26.8427 0.5078 26.6926 0.437254 26.5263C0.366708 26.3599 0.331243 26.1807 0.333075 26V4.66701C0.333075 3.60614 0.754503 2.58873 1.50465 1.83858C2.25479 1.08843 3.27221 0.667007 4.33308 0.667007L17.6661 0.667007C18.7269 0.667007 19.7444 1.08843 20.4945 1.83858C21.2446 2.58873 21.6661 3.60614 21.6661 4.66701V26C21.665 26.3535 21.5243 26.6922 21.2747 26.9425C21.025 27.1927 20.6866 27.3342 20.3331 27.336ZM11.0041 18C11.2823 17.9994 11.5537 18.0861 11.7801 18.248L19.0051 23.409V4.66701C19.0045 4.31346 18.8638 3.97457 18.6137 3.72467C18.3636 3.47477 18.0246 3.33427 17.6711 3.33401H4.33308C3.97953 3.33427 3.64053 3.47477 3.39044 3.72467C3.14035 3.97457 2.9996 4.31346 2.99908 4.66701V23.409L10.2241 18.248C10.45 18.086 10.7211 17.9993 10.9991 18H11.0041Z" fill="black"/>
</svg>
