<svg width="24" height="30" viewBox="0 0 24 30" fill="none" xmlns="http://www.w3.org/2000/svg">
<path d="M4 29.666C2.93913 29.666 1.92172 29.2446 1.17157 28.4944C0.421427 27.7443 0 26.7269 0 25.666V14.999C0 14.6455 0.140441 14.3064 0.390427 14.0564C0.640413 13.8064 0.979466 13.666 1.333 13.666C1.68653 13.666 2.02559 13.8064 2.27557 14.0564C2.52556 14.3064 2.666 14.6455 2.666 14.999V25.666C2.666 25.8411 2.70051 26.0146 2.76756 26.1764C2.83462 26.3381 2.93289 26.4851 3.05678 26.6089C3.18067 26.7327 3.32773 26.8309 3.48958 26.8978C3.65142 26.9648 3.82486 26.9991 4 26.999H20C20.3535 26.999 20.6926 26.8586 20.9426 26.6086C21.1926 26.3586 21.333 26.0195 21.333 25.666V14.999C21.333 14.6455 21.4734 14.3064 21.7234 14.0564C21.9734 13.8064 22.3125 13.666 22.666 13.666C23.0195 13.666 23.3586 13.8064 23.6086 14.0564C23.8586 14.3064 23.999 14.6455 23.999 14.999V25.666C23.999 26.7269 23.5776 27.7443 22.8274 28.4944C22.0773 29.2446 21.0599 29.666 19.999 29.666H4ZM10.667 19V4.885L7.609 7.94201C7.35798 8.18684 7.02059 8.32291 6.66994 8.32072C6.3193 8.31853 5.98363 8.17827 5.73568 7.93032C5.48774 7.68237 5.34747 7.34671 5.34528 6.99606C5.3431 6.64541 5.47916 6.30803 5.724 6.057L11.057 0.723005C11.1478 0.632291 11.2512 0.555162 11.364 0.494005L11.389 0.481005H11.397L11.415 0.472005L11.43 0.465005L11.441 0.460005L11.465 0.449005C11.6326 0.37652 11.8134 0.339127 11.996 0.339127C12.1786 0.339127 12.3594 0.37652 12.527 0.449005L12.551 0.460005H12.562L12.578 0.468005L12.6 0.476005H12.608L12.633 0.489005C12.7458 0.550162 12.8492 0.627292 12.94 0.718005L18.273 6.052C18.3993 6.17521 18.4999 6.32227 18.569 6.48465C18.638 6.64703 18.6741 6.8215 18.6752 6.99795C18.6763 7.1744 18.6424 7.34931 18.5754 7.51254C18.5084 7.67577 18.4096 7.82407 18.2848 7.94884C18.1601 8.07361 18.0118 8.17236 17.8485 8.23938C17.6853 8.3064 17.5104 8.34034 17.3339 8.33924C17.1575 8.33814 16.983 8.30202 16.8206 8.23297C16.6583 8.16392 16.5112 8.06332 16.388 7.93701L13.333 4.885V19C13.333 19.3535 13.1926 19.6926 12.9426 19.9426C12.6926 20.1926 12.3535 20.333 12 20.333C11.6465 20.333 11.3074 20.1926 11.0574 19.9426C10.8074 19.6926 10.667 19.3535 10.667 19Z" fill="black"/>
</svg>
