<svg width="12" height="3" viewBox="0 0 12 3" fill="none" xmlns="http://www.w3.org/2000/svg">
<path d="M9.334 1.5C9.334 1.20333 9.41218 0.913319 9.55865 0.666645C9.70512 0.419972 9.91331 0.227713 10.1569 0.114181C10.4005 0.000649928 10.6685 -0.0290551 10.9271 0.0288228C11.1856 0.0867006 11.4232 0.229562 11.6096 0.439341C11.796 0.649119 11.923 0.916394 11.9744 1.20737C12.0258 1.49834 11.9994 1.79994 11.8985 2.07403C11.7976 2.34811 11.6268 2.58238 11.4076 2.74721C11.1884 2.91203 10.9306 3 10.667 3C10.3135 3 9.97441 2.84197 9.72443 2.56066C9.47444 2.27936 9.334 1.89783 9.334 1.5ZM4.667 1.5C4.667 1.20333 4.74518 0.913319 4.89165 0.666645C5.03812 0.419972 5.24631 0.227713 5.48988 0.114181C5.73346 0.000649928 6.00148 -0.0290551 6.26006 0.0288228C6.51863 0.0867006 6.75615 0.229562 6.94257 0.439341C7.129 0.649119 7.25595 0.916394 7.30739 1.20737C7.35882 1.49834 7.33242 1.79994 7.23153 2.07403C7.13064 2.34811 6.95979 2.58238 6.74058 2.74721C6.52136 2.91203 6.26364 3 6 3C5.64647 3 5.30741 2.84197 5.05743 2.56066C4.80744 2.27936 4.667 1.89783 4.667 1.5ZM0 1.5C0 1.20333 0.0781791 0.913319 0.224651 0.666645C0.371123 0.419972 0.579309 0.227713 0.822883 0.114181C1.06646 0.000649928 1.33448 -0.0290551 1.59306 0.0288228C1.85163 0.0867006 2.08915 0.229562 2.27557 0.439341C2.462 0.649119 2.58895 0.916394 2.64039 1.20737C2.69182 1.49834 2.66542 1.79994 2.56453 2.07403C2.46364 2.34811 2.29279 2.58238 2.07358 2.74721C1.85436 2.91203 1.59664 3 1.333 3C0.979466 3 0.640413 2.84197 0.390427 2.56066C0.140441 2.27936 0 1.89783 0 1.5Z" fill="#7F7F7F"/>
</svg>
