<svg width="13" height="13" viewBox="0 0 13 13" fill="none" xmlns="http://www.w3.org/2000/svg">
<path d="M0.655245 13C0.487413 12.9993 0.325959 12.9356 0.202834 12.8216C0.138082 12.7612 0.0866141 12.6879 0.0516999 12.6065C0.0167857 12.5251 -0.000810807 12.4373 2.8683e-05 12.3488V1.94976C2.8683e-05 1.43265 0.20548 0.936721 0.571185 0.57107C0.93689 0.20542 1.43289 0 1.95008 0L11.051 0C11.5681 0 12.0641 0.20542 12.4298 0.57107C12.7956 0.936721 13.001 1.43265 13.001 1.94976V8.44829C13.001 8.9654 12.7956 9.46133 12.4298 9.82698C12.0641 10.1926 11.5681 10.3981 11.051 10.3981H3.51987L1.10961 12.8079C1.05032 12.8684 0.979645 12.9165 0.901656 12.9495C0.823667 12.9824 0.739916 12.9996 0.655245 13ZM1.95008 1.29951C1.7776 1.29951 1.61218 1.36802 1.49022 1.48996C1.36825 1.61191 1.29974 1.7773 1.29974 1.94976V10.7802L2.79055 9.28961C2.91289 9.16807 3.07829 9.09975 3.25076 9.09951H11.051C11.2234 9.099 11.3885 9.03016 11.5102 8.90809C11.632 8.78602 11.7003 8.62067 11.7003 8.44829V1.94976C11.7003 1.7773 11.6318 1.61191 11.5098 1.48996C11.3879 1.36802 11.2225 1.29951 11.05 1.29951H1.95008Z" fill="black"/>
</svg>
