<svg width="56" height="56" viewBox="0 0 56 56" fill="none" xmlns="http://www.w3.org/2000/svg">
<path d="M3.50901 55.9999C2.60067 55.9953 1.72875 55.7137 1.07106 55.2125C0.729969 54.9526 0.458991 54.6396 0.274805 54.2928C0.0906187 53.946 -0.00287874 53.5726 6.75246e-05 53.1958V2.80449C-0.0022111 2.30097 0.165633 1.8063 0.485859 1.37279C0.806085 0.939275 1.26679 0.583018 1.81929 0.341676C2.37178 0.100335 2.99553 -0.0171253 3.6246 0.00171271C4.25368 0.0205508 4.8647 0.174987 5.39309 0.448696L54.3942 25.6444C54.887 25.8982 55.2923 26.2469 55.573 26.6584C55.8536 27.07 56.0007 27.5313 56.0007 28.0002C56.0007 28.469 55.8536 28.9303 55.573 29.3419C55.2923 29.7535 54.887 30.1021 54.3942 30.356L5.39309 55.5516C4.83184 55.8425 4.1778 55.9982 3.50901 55.9999ZM6.99892 7.93129V48.0685L46.0278 28.0002L6.99892 7.93129Z" fill="white"/>
</svg>
