<svg width="20" height="22" viewBox="0 0 20 22" fill="none" xmlns="http://www.w3.org/2000/svg">
<path d="M4.99892 21.0787C4.76705 21.0666 4.54939 20.9635 4.39336 20.7918C4.23733 20.6202 4.15558 20.394 4.16592 20.1625V17.4166H3.33292C2.63657 17.3814 1.98254 17.0723 1.514 16.5569C1.04545 16.0416 0.800556 15.3619 0.832923 14.6667V10.0832C0.800556 9.38805 1.04545 8.70837 1.514 8.19299C1.98254 7.67761 2.63657 7.36852 3.33292 7.33336H4.16592V1.83261C4.15532 1.60085 4.23711 1.37433 4.39341 1.20261C4.5497 1.03089 4.76778 0.927956 4.99992 0.916321H14.9999C15.232 0.927953 15.45 1.03092 15.6061 1.20267C15.7622 1.37443 15.8438 1.60095 15.8329 1.83261V7.33236H16.6659C17.3623 7.36752 18.0163 7.67662 18.4848 8.192C18.9534 8.70737 19.1983 9.38705 19.1659 10.0822V14.6657C19.1983 15.3609 18.9534 16.0406 18.4848 16.5559C18.0163 17.0713 17.3623 17.3804 16.6659 17.4156H15.8329V20.1654C15.8433 20.3971 15.7614 20.6235 15.6051 20.7952C15.4489 20.9668 15.231 21.0698 14.9989 21.0817L4.99892 21.0787ZM5.83292 19.2492H14.1659V13.7494H5.83292V16.4623C5.83292 16.4743 5.83292 16.4873 5.83292 16.5003C5.83292 16.5133 5.83292 16.5252 5.83292 16.5372V19.2492ZM16.6669 15.583C16.8989 15.5711 17.1167 15.468 17.2728 15.2964C17.4289 15.1247 17.5105 14.8983 17.4999 14.6667V10.0832C17.5108 9.85157 17.4292 9.62505 17.2731 9.4533C17.117 9.28155 16.899 9.17858 16.6669 9.16694H3.33292C3.10096 9.17883 2.88314 9.28188 2.72705 9.45358C2.57097 9.62527 2.48931 9.85164 2.49992 10.0832V14.6667C2.48931 14.8983 2.57097 15.1247 2.72705 15.2964C2.88314 15.468 3.10096 15.5711 3.33292 15.583H4.16592V12.8321C4.15558 12.6006 4.23733 12.3744 4.39336 12.2027C4.54939 12.0311 4.76705 11.928 4.99892 11.9158H14.9989C15.231 11.9277 15.4489 12.0307 15.6051 12.2024C15.7614 12.3741 15.8433 12.6004 15.8329 12.8321V15.583H16.6669ZM14.1669 7.33336V2.7499H5.83292V7.33336H14.1669Z" fill="black"/>
</svg>
