<svg width="14" height="8" viewBox="0 0 14 8" fill="none" xmlns="http://www.w3.org/2000/svg">
<g clip-path="url(#clip0_7_5258)">
<path d="M1.70694 0.299646C1.51477 0.144388 1.27195 0.0657205 1.02524 0.078791C0.778531 0.0918615 0.545382 0.195746 0.370688 0.37044C0.195994 0.545134 0.0921094 0.778283 0.0790389 1.02499C0.0659684 1.2717 0.144636 1.51452 0.299894 1.7067L6.30011 7.70691C6.48773 7.89442 6.74213 7.99975 7.00738 7.99975C7.27264 7.99975 7.52704 7.89442 7.71466 7.70691L13.7149 1.7067C13.8193 1.6167 13.904 1.50609 13.9637 1.38182C14.0233 1.25754 14.0567 1.12228 14.0616 0.984508C14.0665 0.846739 14.0429 0.709439 13.9923 0.581221C13.9416 0.453003 13.865 0.336634 13.7673 0.239414C13.6696 0.142194 13.5528 0.0662207 13.4243 0.0162599C13.2958 -0.0337008 13.1584 -0.0565709 13.0207 -0.0509155C12.8829 -0.0452601 12.7478 -0.0112014 12.6239 0.0491242C12.4999 0.10945 12.3898 0.19474 12.3003 0.299646L7.00063 5.58583L1.70694 0.299646Z" fill="black"/>
</g>
<defs>
<clipPath id="clip0_7_5258">
<rect width="14" height="8" fill="white"/>
</clipPath>
</defs>
</svg>
