<svg width="20" height="20" viewBox="0 0 20 20" fill="none" xmlns="http://www.w3.org/2000/svg">
<g id="Frame" clip-path="url(#clip0_4_3215)">
<g id="feather-icon/youtube">
<path id="Vector" d="M9.47496 17.048L8.15696 17.031C7.45696 17.018 6.80896 17 6.22296 16.978L5.63096 16.953C4.61717 16.9387 3.60674 16.8329 2.61196 16.637C2.07917 16.4856 1.59501 16.198 1.20714 15.8026C0.819275 15.4072 0.541083 14.9176 0.399957 14.382C0.126538 12.8705 -0.0073588 11.337 -4.26914e-05 9.80098C-0.00793688 8.25197 0.128655 6.70561 0.407957 5.18198C0.544674 4.64292 0.820884 4.14935 1.20882 3.75088C1.59676 3.35241 2.08276 3.06308 2.61796 2.91198C3.66682 2.70946 4.73178 2.60169 5.79996 2.58998L6.88696 2.54998C7.53596 2.52998 8.20496 2.51698 8.87596 2.50898L9.79996 2.50098H10.284L11.4 2.51098C11.984 2.51798 12.573 2.53098 13.148 2.54698L13.731 2.56498C14.9604 2.56606 16.1875 2.67211 17.399 2.88198C17.939 3.03769 18.4277 3.3347 18.8146 3.74236C19.2015 4.15002 19.4726 4.65355 19.6 5.20098C19.8738 6.71513 20.0077 8.25128 20 9.78998C20.0061 11.326 19.8695 12.8592 19.592 14.37C19.4555 14.9089 19.1795 15.4024 18.7917 15.8007C18.4039 16.1991 17.918 16.4882 17.383 16.639C16.3898 16.8347 15.3811 16.9401 14.369 16.954L13.777 16.979C13.191 17.002 12.54 17.02 11.843 17.032L10.525 17.049L9.47496 17.048ZM9.35796 4.16998C8.54196 4.17698 7.75796 4.19098 7.03796 4.21198L5.92896 4.25198C4.96743 4.2647 4.00842 4.35365 3.06096 4.51798C2.81749 4.58469 2.59534 4.71305 2.41597 4.89068C2.23659 5.0683 2.10605 5.28918 2.03696 5.53198C1.78363 6.94071 1.65978 8.36967 1.66696 9.80098C1.65883 11.2086 1.7763 12.6142 2.01796 14.001C2.08794 14.2456 2.21946 14.4681 2.39996 14.6474C2.58046 14.8267 2.8039 14.9567 3.04896 15.025C4.03245 15.195 5.02794 15.2863 6.02596 15.298L6.90696 15.33C7.28096 15.341 7.69996 15.352 8.18896 15.361L9.48896 15.378H10.515L11.815 15.361C12.303 15.352 12.722 15.342 13.097 15.33L13.978 15.298L14.714 15.263C15.4617 15.2437 16.2067 15.1651 16.942 15.028C17.1852 14.9614 17.4072 14.8334 17.5865 14.6561C17.7659 14.4789 17.8966 14.2584 17.966 14.016C18.2171 12.6194 18.3409 11.2029 18.336 9.78398C18.3461 8.36468 18.2262 6.94743 17.978 5.54998C17.9161 5.30147 17.7909 5.07322 17.6146 4.88746C17.4383 4.7017 17.2169 4.56476 16.972 4.48998C16.1375 4.35052 15.2939 4.27298 14.448 4.25798L13.672 4.22698C12.991 4.20398 12.219 4.18598 11.372 4.17398L10.28 4.16498H9.79996L9.35796 4.16998ZM7.54496 13.117C7.46401 13.0395 7.39973 12.9464 7.35605 12.8432C7.31238 12.74 7.29023 12.629 7.29096 12.517V7.06698C7.29122 6.84569 7.37931 6.63357 7.53588 6.47719C7.69244 6.32081 7.90468 6.23298 8.12596 6.23298C8.2699 6.23311 8.41128 6.27104 8.53596 6.34298L13.328 9.06798C13.4561 9.14066 13.5626 9.246 13.6367 9.37328C13.7108 9.50055 13.7499 9.6452 13.7499 9.79248C13.7499 9.93976 13.7108 10.0844 13.6367 10.2117C13.5626 10.3389 13.4561 10.4443 13.328 10.517L8.53696 13.241C8.4121 13.3135 8.27033 13.3518 8.12596 13.352C7.90933 13.351 7.70134 13.2669 7.54496 13.117ZM8.95796 11.084L11.23 9.79198L8.95796 8.50098V11.084Z" fill="#7F7F7F"/>
</g>
</g>
<defs>
<clipPath id="clip0_4_3215">
<rect width="20.001" height="20" fill="white"/>
</clipPath>
</defs>
</svg>
