<svg width="20" height="20" viewBox="0 0 20 20" fill="none" xmlns="http://www.w3.org/2000/svg">
<g id="Frame" clip-path="url(#clip0_4_3205)">
<path id="Vector" d="M11.667 19.166H8.333C8.11216 19.1657 7.90043 19.0779 7.74427 18.9217C7.58811 18.7656 7.50026 18.5539 7.5 18.333V12.5H5.833C5.61206 12.4995 5.40034 12.4114 5.24421 12.2551C5.08808 12.0988 5.00026 11.8869 5 11.666V8.33301C5.00026 8.11216 5.08811 7.90044 5.24427 7.74428C5.40043 7.58812 5.61216 7.50027 5.833 7.50001H7.5V5.83301C7.50159 4.50741 8.02888 3.23657 8.96622 2.29923C9.90356 1.36189 11.1744 0.834596 12.5 0.833008L15 0.833008C15.2208 0.833272 15.4326 0.92112 15.5887 1.07728C15.7449 1.23344 15.8327 1.44516 15.833 1.66601V5.00001C15.8327 5.22085 15.7449 5.43258 15.5887 5.58874C15.4326 5.7449 15.2208 5.83274 15 5.83301H12.5V7.50001H15C15.1264 7.5001 15.251 7.52895 15.3646 7.58435C15.4782 7.63975 15.5776 7.72027 15.6555 7.81979C15.7333 7.91932 15.7875 8.03526 15.814 8.15882C15.8404 8.28239 15.8383 8.41035 15.808 8.53301L14.975 11.867C14.9302 12.0476 14.8262 12.2079 14.6795 12.3223C14.5328 12.4367 14.352 12.4986 14.166 12.498H12.5V18.333C12.4997 18.5539 12.4119 18.7656 12.2557 18.9217C12.0996 19.0779 11.8878 19.1657 11.667 19.166ZM6.667 9.16601V10.833H8.333C8.55394 10.8333 8.76576 10.9211 8.92208 11.0772C9.0784 11.2334 9.16647 11.4451 9.167 11.666V17.5H10.833V11.666C10.8333 11.445 10.9212 11.2331 11.0776 11.0769C11.234 10.9207 11.446 10.833 11.667 10.833H13.517L13.933 9.16601H11.667C11.446 9.16601 11.234 9.07828 11.0776 8.92209C10.9212 8.7659 10.8333 8.55403 10.833 8.33301V5.83301C10.8335 5.39105 11.0093 4.96735 11.3218 4.65485C11.6343 4.34234 12.058 4.16654 12.5 4.16601H14.166V2.49901H12.5C11.6162 2.50007 10.7689 2.8517 10.144 3.47674C9.51917 4.10179 9.16779 4.94919 9.167 5.83301V8.33301C9.16647 8.55394 9.0784 8.76567 8.92208 8.9218C8.76576 9.07793 8.55394 9.16574 8.333 9.16601H6.667Z" fill="#7F7F7F"/>
</g>
<defs>
<clipPath id="clip0_4_3205">
<rect width="20" height="20" fill="white"/>
</clipPath>
</defs>
</svg>
