<svg width="20" height="20" viewBox="0 0 20 20" fill="none" xmlns="http://www.w3.org/2000/svg">
<g id="Frame" clip-path="url(#clip0_4_3211)">
<g id="feather-icon/twitter">
<path id="Vector" d="M6.89255 18.3019C4.62574 18.2773 2.40233 17.6772 0.430844 16.5579C0.270253 16.4681 0.143849 16.3278 0.0713207 16.1587C-0.00120749 15.9896 -0.0157881 15.8012 0.0298499 15.623C0.0754879 15.4447 0.178782 15.2866 0.323644 15.1731C0.468506 15.0597 0.646803 14.9974 0.830764 14.9959H0.868757C0.986733 14.9959 1.10571 15.0029 1.22269 15.0029C2.50243 15.0009 3.76678 14.7236 4.92994 14.1899C3.23843 13.2085 1.96241 11.6443 1.34066 9.78988C0.78702 7.97102 0.782847 6.02911 1.32866 4.20788C1.43607 3.79367 1.57375 3.38792 1.74058 2.99388C1.80088 2.85944 1.89574 2.7434 2.01551 2.6576C2.13528 2.57179 2.27565 2.5193 2.42232 2.50548C2.56899 2.49165 2.7167 2.51699 2.85039 2.57889C2.98407 2.6408 3.09895 2.73707 3.18329 2.85788C3.84277 3.79601 4.69507 4.58236 5.68309 5.16426C6.67111 5.74615 7.77204 6.11015 8.91215 6.23188L9.1671 6.25488V6.05488C9.1988 5.18776 9.47682 4.34762 9.96861 3.63281C10.4604 2.91801 11.1456 2.35812 11.944 2.0187C12.7424 1.67928 13.6209 1.57437 14.4768 1.71626C15.3326 1.85815 16.1304 2.24096 16.7766 2.81988C17.4538 2.57157 18.0955 2.23536 18.6852 1.81988C18.8246 1.71989 18.9916 1.66572 19.1631 1.66488C19.291 1.66597 19.4169 1.69584 19.5317 1.75228C19.6465 1.80871 19.747 1.89026 19.826 1.99088C19.9037 2.08919 19.9577 2.2042 19.9835 2.32687C20.0094 2.44954 20.0064 2.57654 19.9749 2.69788C19.6896 3.86752 19.1186 4.9481 18.3133 5.84288C18.3253 5.98088 18.3323 6.11888 18.3323 6.25088C18.3469 7.9569 18.034 9.64988 17.4104 11.2379C16.5805 13.3434 15.13 15.1466 13.2515 16.4083C11.3729 17.67 9.15514 18.3304 6.89255 18.3019ZM2.83836 5.03588C2.47778 6.42969 2.50753 7.89585 2.92435 9.27388C3.2651 10.2167 3.80639 11.0744 4.51083 11.7876C5.21528 12.5008 6.06609 13.0526 7.00453 13.4049C7.14039 13.4651 7.25767 13.5606 7.34419 13.6814C7.43072 13.8023 7.48334 13.9441 7.4966 14.0921C7.50986 14.2402 7.48328 14.389 7.41961 14.5233C7.35594 14.6576 7.2575 14.7725 7.1345 14.8559C6.20819 15.4855 5.18717 15.9628 4.11011 16.2699C5.019 16.5112 5.95517 16.6346 6.89555 16.6369C8.16949 16.6501 9.43323 16.4086 10.6126 15.9266C11.7919 15.4445 12.8631 14.7317 13.7632 13.8299C14.7246 12.8225 15.4761 11.6339 15.9739 10.3332C16.4717 9.0326 16.7058 7.6459 16.6626 6.25388C16.6625 6.0733 16.6451 5.89313 16.6106 5.71588C16.5849 5.58135 16.5927 5.44254 16.6333 5.31174C16.6739 5.18093 16.7461 5.06215 16.8436 4.96588C17.0285 4.78372 17.2005 4.58892 17.3585 4.38288L17.0735 4.48288L16.7856 4.57388C16.6322 4.62035 16.4687 4.62147 16.3147 4.57711C16.1608 4.53276 16.0229 4.44481 15.9177 4.32388C15.5274 3.87482 15.0083 3.55675 14.431 3.41282C13.8538 3.26888 13.2462 3.30606 12.6907 3.51931C12.1353 3.73255 11.6589 4.11154 11.3262 4.60485C10.9934 5.09815 10.8205 5.6819 10.8308 6.27688V7.10788C10.8319 7.32552 10.7473 7.53487 10.5954 7.69072C10.4436 7.84657 10.2365 7.93642 10.0189 7.94088C9.93494 7.94088 9.84996 7.94088 9.76598 7.94088C8.47214 7.94318 7.19103 7.68541 5.99873 7.18288C4.81297 6.68462 3.73853 5.9547 2.83836 5.03588Z" fill="#7F7F7F"/>
</g>
</g>
<defs>
<clipPath id="clip0_4_3211">
<rect width="20" height="20" fill="white"/>
</clipPath>
</defs>
</svg>
