<svg width="22" height="20" viewBox="0 0 22 20" fill="none" xmlns="http://www.w3.org/2000/svg">
<path d="M11.0031 2.901L11.3261 2.578C11.8768 2.01274 12.5343 1.56249 13.2605 1.25338C13.9866 0.944266 14.7669 0.782449 15.5561 0.777317C16.3453 0.772185 17.1276 0.923841 17.8577 1.22348C18.5879 1.52312 19.2512 1.96479 19.8092 2.52283C20.3673 3.08088 20.8089 3.74421 21.1086 4.47431C21.4082 5.20442 21.5599 5.98676 21.5547 6.77595C21.5496 7.56513 21.3878 8.34544 21.0787 9.07158C20.7696 9.79773 20.3193 10.4553 19.7541 11.006L11.6541 19.106C11.5688 19.1916 11.4676 19.2596 11.356 19.3059C11.2445 19.3523 11.1249 19.3762 11.0041 19.3762C10.8833 19.3762 10.7636 19.3523 10.6521 19.3059C10.5406 19.2596 10.4393 19.1916 10.3541 19.106L2.25406 11.006C1.16034 9.88346 0.552801 8.37528 0.562992 6.80805C0.573184 5.24082 1.20029 3.74068 2.30851 2.63245C3.41673 1.52423 4.91688 0.897126 6.48411 0.886935C8.05134 0.876743 9.55952 1.48428 10.6821 2.578L11.0031 2.901Z" fill="white"/>
</svg>
