<svg width="12" height="12" viewBox="0 0 12 12" fill="none" xmlns="http://www.w3.org/2000/svg">
<path d="M6.00153 2.12782L6.17772 1.95164C6.47812 1.64331 6.83677 1.39772 7.23285 1.22911C7.62893 1.06051 8.05455 0.972244 8.48502 0.969444C8.91548 0.966645 9.34222 1.04937 9.74045 1.21281C10.1387 1.37625 10.5005 1.61715 10.8049 1.92154C11.1093 2.22594 11.3502 2.58775 11.5136 2.98599C11.6771 3.38423 11.7598 3.81096 11.757 4.24142C11.7542 4.67189 11.6659 5.09751 11.4973 5.49359C11.3287 5.88967 11.0831 6.24832 10.7748 6.54873L6.35663 10.9669C6.31015 11.0136 6.2549 11.0507 6.19406 11.076C6.13321 11.1013 6.06797 11.1143 6.00208 11.1143C5.93619 11.1143 5.87095 11.1013 5.8101 11.076C5.74926 11.0507 5.69401 11.0136 5.64753 10.9669L1.22935 6.54873C0.63278 5.93643 0.301395 5.11379 0.306954 4.25894C0.312513 3.40408 0.654569 2.58582 1.25905 1.98134C1.86354 1.37685 2.6818 1.03479 3.53665 1.02924C4.39151 1.02368 5.21415 1.35506 5.82644 1.95164L6.00153 2.12782Z" fill="white"/>
</svg>
