<svg width="12" height="12" viewBox="0 0 12 12" fill="none" xmlns="http://www.w3.org/2000/svg">
<path d="M2.00024 11.4997C1.60242 11.4997 1.22089 11.3417 0.939584 11.0604C0.658279 10.7791 0.500244 10.3976 0.500244 9.99974V2.99999C0.500244 2.60217 0.658279 2.22064 0.939584 1.93933C1.22089 1.65803 1.60242 1.49999 2.00024 1.49999H5.50049C5.56777 1.49739 5.63488 1.50839 5.6978 1.53234C5.76072 1.55628 5.81816 1.59268 5.86668 1.63936C5.91519 1.68603 5.95379 1.74202 5.98016 1.80397C6.00652 1.86591 6.02011 1.93255 6.02011 1.99987C6.02011 2.06719 6.00652 2.13383 5.98016 2.19577C5.95379 2.25772 5.91519 2.31371 5.86668 2.36038C5.81816 2.40706 5.76072 2.44346 5.6978 2.4674C5.63488 2.49135 5.56777 2.50235 5.50049 2.49974H2.00024C1.86757 2.49974 1.74033 2.55245 1.64651 2.64626C1.5527 2.74008 1.49999 2.86732 1.49999 2.99999V10.0005C1.50019 10.133 1.55299 10.2601 1.64678 10.3537C1.74057 10.4474 1.8677 10.5 2.00024 10.5H9.00074C9.06634 10.5 9.13129 10.4871 9.1919 10.462C9.2525 10.4369 9.30756 10.4001 9.35394 10.3537C9.40033 10.3073 9.43712 10.2522 9.46222 10.1916C9.48732 10.131 9.50025 10.0661 9.50025 10.0005V6.50025C9.49764 6.43297 9.50864 6.36586 9.53259 6.30294C9.55653 6.24002 9.59293 6.18258 9.63961 6.13406C9.68628 6.08555 9.74227 6.04695 9.80422 6.02058C9.86616 5.99422 9.9328 5.98063 10.0001 5.98063C10.0674 5.98063 10.1341 5.99422 10.196 6.02058C10.258 6.04695 10.314 6.08555 10.3606 6.13406C10.4073 6.18258 10.4437 6.24002 10.4677 6.30294C10.4916 6.36586 10.5026 6.43297 10.5 6.50025V10.0005C10.5 10.3983 10.342 10.7799 10.0607 11.0612C9.77935 11.3425 9.39782 11.5005 9 11.5005L2.00024 11.4997ZM3.60599 8.30699C3.55899 8.24738 3.52636 8.17773 3.51062 8.10347C3.49488 8.0292 3.49647 7.9523 3.51524 7.87874L4.01549 5.87924C4.03769 5.79125 4.08331 5.7109 4.14749 5.64674L8.90024 0.896995C9.18069 0.617459 9.5569 0.454966 9.95267 0.442433C10.3484 0.4299 10.7342 0.568263 11.0317 0.829495L11.1067 0.896995L11.1742 0.971995C11.4358 1.26998 11.5744 1.65625 11.5619 2.05257C11.5493 2.44889 11.3867 2.82564 11.1067 3.10649L6.35024 7.85399C6.28602 7.91794 6.20568 7.9633 6.11774 7.98524L4.11824 8.48549C4.07777 8.49557 4.0362 8.50061 3.99449 8.50049C3.91929 8.49987 3.84522 8.48212 3.77791 8.44859C3.71059 8.41507 3.6518 8.36664 3.60599 8.30699ZM9.606 1.60349L4.95599 6.25349L4.68749 7.31249L5.74499 7.04849L10.395 2.39849C10.4505 2.34724 10.4951 2.2853 10.526 2.2164C10.557 2.14749 10.5737 2.07304 10.5752 1.99752C10.5767 1.92199 10.563 1.84693 10.5347 1.77686C10.5065 1.70678 10.4645 1.64312 10.411 1.58971C10.3576 1.53629 10.294 1.49421 10.2239 1.46599C10.1538 1.43778 10.0788 1.424 10.0032 1.4255C9.9277 1.427 9.85325 1.44374 9.78434 1.47471C9.71544 1.50568 9.6535 1.55025 9.60224 1.60574L9.606 1.60349Z" fill="black"/>
</svg>
