<svg width="14" height="14" viewBox="0 0 14 14" fill="none" xmlns="http://www.w3.org/2000/svg">
<g id="IMAGE" clip-path="url(#clip0_7_5098)">
<path id="Shape" d="M4.61086 4.22645L6.4291 0.371579C6.4813 0.25909 6.56268 0.164244 6.66395 0.0978866C6.76522 0.0315288 6.8823 -0.00366211 7.00178 -0.00366211C7.12126 -0.00366211 7.23833 0.0315288 7.3396 0.0978866C7.44088 0.164244 7.52226 0.25909 7.57445 0.371579L9.38888 4.22645L13.4549 4.84878C13.5722 4.86686 13.6824 4.9189 13.7731 4.99903C13.8637 5.07916 13.9311 5.1842 13.9677 5.30229C14.0043 5.42039 14.0087 5.54684 13.9803 5.6674C13.9519 5.78795 13.8919 5.8978 13.8071 5.98456L10.8654 8.98135L11.5593 13.2178C11.5786 13.34 11.565 13.4654 11.52 13.58C11.475 13.6945 11.4004 13.7937 11.3045 13.8663C11.2087 13.9389 11.0954 13.9821 10.9773 13.9911C10.8593 14.0001 10.7412 13.9744 10.6364 13.9171L6.99987 11.9192L3.36338 13.9171C3.2585 13.9744 3.14042 14.0001 3.02239 13.9911C2.90437 13.9821 2.79106 13.9389 2.69521 13.8663C2.59935 13.7937 2.52473 13.6945 2.47972 13.58C2.43472 13.4654 2.42111 13.34 2.44042 13.2178L3.13431 8.98135L0.190762 5.98456C0.105869 5.89767 0.0458883 5.78766 0.0175985 5.66696C-0.0106913 5.54626 -0.006163 5.41969 0.0306717 5.30154C0.0675064 5.18339 0.135179 5.07838 0.226043 4.99837C0.316908 4.91837 0.427341 4.86655 0.544866 4.84878L4.61086 4.22645Z" fill="#FF642F"/>
</g>
<defs>
<clipPath id="clip0_7_5098">
<rect width="14" height="14" fill="white"/>
</clipPath>
</defs>
</svg>
